<?xml version="1.0" encoding="UTF-8" standalone="no"?>
<svg
   xmlns:dc="http://purl.org/dc/elements/1.1/"
   xmlns:cc="http://creativecommons.org/ns#"
   xmlns:rdf="http://www.w3.org/1999/02/22-rdf-syntax-ns#"
   xmlns:svg="http://www.w3.org/2000/svg"
   xmlns="http://www.w3.org/2000/svg"
   xmlns:sodipodi="http://sodipodi.sourceforge.net/DTD/sodipodi-0.dtd"
   xmlns:inkscape="http://www.inkscape.org/namespaces/inkscape"
   width="290mm"
   height="89mm"
   viewBox="0 0 290 89"
   version="1.1"
   preserveAspectRatio="xMidYMid meet"
   id="svg1380"
   sodipodi:docname="binnenste.svg"
   inkscape:version="1.0.2-2 (e86c870879, 2021-01-15)">
  <metadata
     id="metadata1386">
    <rdf:RDF>
      <cc:Work
         rdf:about="">
        <dc:format>image/svg+xml</dc:format>
        <dc:type
           rdf:resource="http://purl.org/dc/dcmitype/StillImage" />
        <dc:title></dc:title>
      </cc:Work>
    </rdf:RDF>
  </metadata>
  <defs
     id="defs1384" />
  <sodipodi:namedview
     pagecolor="#ffffff"
     bordercolor="#666666"
     borderopacity="1"
     objecttolerance="10"
     gridtolerance="10"
     guidetolerance="10"
     inkscape:pageopacity="0"
     inkscape:pageshadow="2"
     inkscape:window-width="1920"
     inkscape:window-height="1051"
     id="namedview1382"
     showgrid="false"
     inkscape:zoom="1.218908"
     inkscape:cx="566.5765"
     inkscape:cy="135.4119"
     inkscape:window-x="-9"
     inkscape:window-y="-9"
     inkscape:window-maximized="1"
     inkscape:current-layer="svgGroup" />
  <g
     id="svgGroup"
     stroke-linecap="round"
     fill-rule="evenodd"
     font-size="12px"
     stroke="#000"
     stroke-width="0.25mm"
     fill="none"
     style="fill:none;stroke:#000000;stroke-width:0.25mm">
    <path
       d="M 0,46 V 89 H 135 V 46 Z"
       id="front_outsideCutPath"
       stroke="#FF0000"
       stroke-width="0.1"
       style="stroke:#ff0000;stroke-width:0.1"
       vector-effect="non-scaling-stroke" />
    <path
       d="M 73.767,70.748 H 73.07 v -2.977 a 1.97,1.97 0 0 0 -0.022,-0.309 q -0.054,-0.336 -0.234,-0.531 a 0.786,0.786 0 0 0 -0.322,-0.206 q -0.203,-0.071 -0.48,-0.071 -0.476,0 -0.784,0.169 a 0.983,0.983 0 0 0 -0.274,0.221 q -0.307,0.357 -0.334,1.138 a 4.466,4.466 0 0 0 -0.002,0.151 v 2.415 h -0.697 v -4.602 h 0.567 l 0.113,0.63 h 0.034 a 1.411,1.411 0 0 1 0.553,-0.504 1.697,1.697 0 0 1 0.047,-0.023 1.888,1.888 0 0 1 0.672,-0.18 2.282,2.282 0 0 1 0.189,-0.007 q 0.831,0 1.251,0.401 a 1.208,1.208 0 0 1 0.295,0.462 q 0.125,0.338 0.125,0.821 z M 60.376,66.146 v 0.541 h -1.172 v 4.061 h -0.697 v -4.061 h -0.823 v -0.315 l 0.823,-0.252 v -0.256 a 2.825,2.825 0 0 1 0.066,-0.64 q 0.204,-0.873 1.039,-1.024 a 2.119,2.119 0 0 1 0.378,-0.032 q 0.284,0 0.644,0.089 a 4.512,4.512 0 0 1 0.212,0.058 l -0.18,0.558 A 3.385,3.385 0 0 0 60.403,64.799 Q 60.27,64.768 60.152,64.754 a 1.499,1.499 0 0 0 -0.175,-0.011 0.94,0.94 0 0 0 -0.227,0.026 0.604,0.604 0 0 0 -0.357,0.237 q -0.189,0.262 -0.189,0.842 v 0.298 z m 16.94,4.027 v 0.533 a 0.686,0.686 0 0 1 -0.082,0.032 q -0.086,0.029 -0.211,0.051 a 2.609,2.609 0 0 1 -0.041,0.007 3.021,3.021 0 0 1 -0.197,0.026 q -0.106,0.01 -0.2,0.01 A 1.821,1.821 0 0 1 76.048,70.76 Q 75.25,70.513 75.25,69.425 v -2.738 h -0.66 v -0.336 l 0.66,-0.289 0.294,-0.983 h 0.403 v 1.067 h 1.335 v 0.541 h -1.335 v 2.709 a 1.404,1.404 0 0 0 0.02,0.246 q 0.043,0.241 0.177,0.392 0.197,0.223 0.542,0.223 a 2.289,2.289 0 0 0 0.335,-0.024 2.114,2.114 0 0 0 0.022,-0.004 q 0.164,-0.026 0.263,-0.054 a 1.055,1.055 0 0 0 0.01,-0.002 z m -13.45,-4.061 -0.097,0.647 a 3.072,3.072 0 0 0 -0.221,-0.041 q -0.11,-0.016 -0.208,-0.02 a 1.635,1.635 0 0 0 -0.075,-0.002 1.208,1.208 0 0 0 -0.892,0.385 1.652,1.652 0 0 0 -0.063,0.068 1.592,1.592 0 0 0 -0.384,0.894 2.116,2.116 0 0 0 -0.013,0.236 v 2.469 h -0.697 v -4.602 h 0.575 l 0.08,0.852 h 0.034 a 2.354,2.354 0 0 1 0.263,-0.376 1.798,1.798 0 0 1 0.354,-0.317 1.39,1.39 0 0 1 0.793,-0.243 3.2,3.2 0 0 1 0.287,0.012 2.336,2.336 0 0 1 0.264,0.038 z m 4.769,3.031 a 3.601,3.601 0 0 0 0.064,-0.7 q 0,-0.448 -0.095,-0.82 a 2.171,2.171 0 0 0 -0.474,-0.919 1.825,1.825 0 0 0 -0.847,-0.546 2.342,2.342 0 0 0 -0.688,-0.096 2.707,2.707 0 0 0 -0.486,0.041 1.844,1.844 0 0 0 -1.076,0.586 1.926,1.926 0 0 0 -0.237,0.328 q -0.326,0.569 -0.326,1.426 a 3.487,3.487 0 0 0 0.044,0.564 2.579,2.579 0 0 0 0.217,0.704 2.291,2.291 0 0 0 0.05,0.099 1.887,1.887 0 0 0 0.689,0.732 1.941,1.941 0 0 0 0.445,0.198 2.238,2.238 0 0 0 0.651,0.092 2.707,2.707 0 0 0 0.472,-0.04 1.858,1.858 0 0 0 1.094,-0.592 q 0.376,-0.42 0.503,-1.057 z m -3.442,-0.7 a 3.53,3.53 0 0 0 0.033,0.504 q 0.037,0.256 0.115,0.463 a 1.462,1.462 0 0 0 0.204,0.376 1.142,1.142 0 0 0 0.744,0.439 1.731,1.731 0 0 0 0.293,0.023 1.619,1.619 0 0 0 0.428,-0.053 1.127,1.127 0 0 0 0.612,-0.407 q 0.264,-0.341 0.331,-0.919 a 3.672,3.672 0 0 0 0.024,-0.426 3.478,3.478 0 0 0 -0.033,-0.496 Q 67.907,67.695 67.831,67.49 a 1.435,1.435 0 0 0 -0.209,-0.381 1.147,1.147 0 0 0 -0.713,-0.425 1.758,1.758 0 0 0 -0.335,-0.03 1.659,1.659 0 0 0 -0.413,0.048 1.11,1.11 0 0 0 -0.62,0.401 1.441,1.441 0 0 0 -0.224,0.433 q -0.066,0.199 -0.097,0.442 a 3.683,3.683 0 0 0 -0.027,0.465 z"
       id="front_labelLayer"
       stroke="#777777"
       fill="#777777"
       style="fill:#777777;stroke:#777777"
       vector-effect="non-scaling-stroke" />
    <path
       d="M 155,69 V 89 H 290 V 69 Z"
       id="bottom_outsideCutPath"
       stroke="#FF0000"
       stroke-width="0.1"
       style="stroke:#ff0000;stroke-width:0.1"
       vector-effect="non-scaling-stroke" />
    <path
       d="m 229.08,80.5 h -0.324 v -1.393 a 0.956,0.956 0 0 0 -0.01,-0.14 q -0.01,-0.072 -0.033,-0.13 a 0.392,0.392 0 0 0 -0.067,-0.113 0.341,0.341 0 0 0 -0.158,-0.103 q -0.057,-0.018 -0.126,-0.023 a 0.753,0.753 0 0 0 -0.055,-0.002 0.834,0.834 0 0 0 -0.17,0.016 q -0.177,0.037 -0.278,0.157 a 0.536,0.536 0 0 0 -0.09,0.165 q -0.054,0.149 -0.054,0.367 a 1.729,1.729 0 0 0 0,0.004 V 80.5 h -0.324 v -1.393 a 0.956,0.956 0 0 0 -0.01,-0.14 q -0.011,-0.072 -0.033,-0.13 a 0.392,0.392 0 0 0 -0.067,-0.113 0.34,0.34 0 0 0 -0.156,-0.102 Q 227.069,78.603 227,78.598 a 0.759,0.759 0 0 0 -0.061,-0.002 q -0.304,0 -0.446,0.182 -0.128,0.166 -0.14,0.523 a 2.257,2.257 0 0 0 -0.001,0.076 V 80.5 h -0.325 v -2.141 h 0.264 l 0.053,0.293 h 0.015 a 0.637,0.637 0 0 1 0.259,-0.244 0.77,0.77 0 0 1 0.304,-0.085 0.93,0.93 0 0 1 0.07,-0.003 1.061,1.061 0 0 1 0.239,0.025 q 0.147,0.034 0.25,0.115 a 0.554,0.554 0 0 1 0.167,0.224 h 0.016 a 0.677,0.677 0 0 1 0.255,-0.254 0.813,0.813 0 0 1 0.022,-0.012 0.821,0.821 0 0 1 0.301,-0.092 1.023,1.023 0 0 1 0.113,-0.006 q 0.245,0 0.407,0.085 a 0.534,0.534 0 0 1 0.137,0.102 q 0.181,0.186 0.181,0.596 z m -12.836,-0.275 h -0.023 l -0.069,0.275 h -0.232 v -3.039 h 0.324 v 0.738 a 6.76,6.76 0 0 1 -0.004,0.229 q -0.003,0.115 -0.011,0.216 h 0.015 a 0.737,0.737 0 0 1 0.538,-0.312 1.107,1.107 0 0 1 0.134,-0.008 q 0.422,0 0.655,0.288 a 0.955,0.955 0 0 1 0.168,0.323 q 0.041,0.133 0.056,0.292 a 2.081,2.081 0 0 1 0.01,0.201 q 0,0.527 -0.236,0.819 a 0.768,0.768 0 0 1 -0.545,0.287 1.1,1.1 0 0 1 -0.108,0.005 0.983,0.983 0 0 1 -0.247,-0.03 0.856,0.856 0 0 1 -0.135,-0.047 0.718,0.718 0 0 1 -0.29,-0.237 z m 5.527,0.007 v 0.248 q -0.047,0.023 -0.135,0.039 a 1.214,1.214 0 0 1 -0.02,0.003 q -0.096,0.016 -0.173,0.017 a 0.831,0.831 0 0 1 -0.011,0 0.847,0.847 0 0 1 -0.25,-0.034 q -0.371,-0.114 -0.371,-0.62 v -1.274 h -0.307 v -0.156 l 0.307,-0.135 0.136,-0.457 h 0.188 v 0.496 h 0.621 v 0.252 h -0.621 v 1.26 q 0,0.136 0.045,0.227 a 0.314,0.314 0 0 0 0.047,0.07 0.301,0.301 0 0 0 0.185,0.098 0.433,0.433 0 0 0 0.067,0.005 1.065,1.065 0 0 0 0.155,-0.011 0.981,0.981 0 0 0 0.011,-0.001 q 0.076,-0.012 0.122,-0.025 a 0.488,0.488 0 0 0 0.004,-0.002 z m 1.413,0 v 0.248 q -0.048,0.023 -0.136,0.039 a 1.214,1.214 0 0 1 -0.02,0.003 q -0.095,0.016 -0.173,0.017 a 0.831,0.831 0 0 1 -0.011,0 0.847,0.847 0 0 1 -0.25,-0.034 q -0.371,-0.114 -0.371,-0.62 v -1.274 h -0.307 v -0.156 l 0.307,-0.135 0.136,-0.457 h 0.188 v 0.496 h 0.621 v 0.252 h -0.621 v 1.26 q 0,0.136 0.045,0.227 a 0.314,0.314 0 0 0 0.047,0.07 0.301,0.301 0 0 0 0.185,0.098 0.433,0.433 0 0 0 0.067,0.005 1.065,1.065 0 0 0 0.156,-0.011 0.981,0.981 0 0 0 0.01,-0.001 q 0.076,-0.012 0.122,-0.025 a 0.488,0.488 0 0 0 0.005,-0.002 z m -2.995,-0.479 a 1.675,1.675 0 0 0 0.03,-0.325 q 0,-0.51 -0.265,-0.809 a 0.849,0.849 0 0 0 -0.394,-0.254 1.089,1.089 0 0 0 -0.32,-0.045 1.259,1.259 0 0 0 -0.226,0.02 0.858,0.858 0 0 0 -0.5,0.272 0.896,0.896 0 0 0 -0.11,0.153 q -0.152,0.264 -0.152,0.663 0,0.338 0.121,0.59 a 1.066,1.066 0 0 0 0.024,0.046 0.878,0.878 0 0 0 0.32,0.34 0.903,0.903 0 0 0 0.207,0.092 1.041,1.041 0 0 0 0.303,0.043 1.259,1.259 0 0 0 0.219,-0.018 0.864,0.864 0 0 0 0.509,-0.276 0.904,0.904 0 0 0 0.108,-0.148 q 0.088,-0.15 0.126,-0.344 z m 5.24,0 a 1.675,1.675 0 0 0 0.03,-0.325 q 0,-0.51 -0.265,-0.809 a 0.849,0.849 0 0 0 -0.394,-0.254 1.089,1.089 0 0 0 -0.32,-0.045 1.259,1.259 0 0 0 -0.226,0.02 0.858,0.858 0 0 0 -0.5,0.272 0.896,0.896 0 0 0 -0.11,0.153 q -0.152,0.264 -0.152,0.663 0,0.338 0.121,0.59 a 1.066,1.066 0 0 0 0.024,0.046 0.878,0.878 0 0 0 0.32,0.34 0.903,0.903 0 0 0 0.207,0.092 1.041,1.041 0 0 0 0.303,0.043 1.259,1.259 0 0 0 0.22,-0.018 0.864,0.864 0 0 0 0.508,-0.276 0.904,0.904 0 0 0 0.108,-0.148 q 0.088,-0.15 0.126,-0.344 z m -6.841,-0.325 a 1.642,1.642 0 0 0 0.016,0.234 q 0.017,0.119 0.053,0.216 a 0.68,0.68 0 0 0 0.095,0.175 0.531,0.531 0 0 0 0.346,0.203 0.805,0.805 0 0 0 0.136,0.012 0.753,0.753 0 0 0 0.199,-0.025 0.524,0.524 0 0 0 0.285,-0.189 q 0.165,-0.214 0.165,-0.626 a 1.618,1.618 0 0 0 -0.016,-0.231 q -0.016,-0.117 -0.052,-0.212 a 0.668,0.668 0 0 0 -0.097,-0.177 0.533,0.533 0 0 0 -0.332,-0.198 0.818,0.818 0 0 0 -0.156,-0.014 0.772,0.772 0 0 0 -0.192,0.022 0.516,0.516 0 0 0 -0.288,0.187 0.67,0.67 0 0 0 -0.104,0.201 q -0.031,0.093 -0.045,0.206 a 1.713,1.713 0 0 0 -0.013,0.216 z m 5.24,0 a 1.642,1.642 0 0 0 0.016,0.234 q 0.017,0.119 0.053,0.216 a 0.68,0.68 0 0 0 0.095,0.175 0.531,0.531 0 0 0 0.346,0.203 0.805,0.805 0 0 0 0.137,0.012 0.753,0.753 0 0 0 0.198,-0.025 0.524,0.524 0 0 0 0.285,-0.189 q 0.165,-0.214 0.165,-0.626 a 1.618,1.618 0 0 0 -0.015,-0.231 q -0.017,-0.117 -0.053,-0.212 a 0.668,0.668 0 0 0 -0.097,-0.177 0.533,0.533 0 0 0 -0.332,-0.198 0.818,0.818 0 0 0 -0.155,-0.014 0.772,0.772 0 0 0 -0.192,0.022 0.516,0.516 0 0 0 -0.289,0.187 0.67,0.67 0 0 0 -0.104,0.201 q -0.031,0.093 -0.045,0.206 a 1.713,1.713 0 0 0 -0.013,0.216 z m -7.312,-0.752 a 0.431,0.431 0 0 0 -0.125,0.11 q -0.129,0.167 -0.145,0.536 a 2.498,2.498 0 0 0 -0.002,0.106 2.144,2.144 0 0 0 0.011,0.221 q 0.023,0.224 0.098,0.36 a 0.489,0.489 0 0 0 0.042,0.064 0.47,0.47 0 0 0 0.238,0.161 q 0.106,0.034 0.244,0.034 a 0.646,0.646 0 0 0 0.184,-0.025 0.466,0.466 0 0 0 0.261,-0.193 q 0.105,-0.156 0.135,-0.409 a 1.858,1.858 0 0 0 0.012,-0.217 q 0,-0.396 -0.132,-0.601 a 0.538,0.538 0 0 0 -0.015,-0.022 0.473,0.473 0 0 0 -0.301,-0.191 0.75,0.75 0 0 0 -0.152,-0.014 q -0.216,0 -0.353,0.08 z"
       id="bottom_labelLayer"
       stroke="#777777"
       fill="#777777"
       style="fill:#777777;stroke:#777777"
       vector-effect="non-scaling-stroke" />
  </g>
</svg>
