<?xml version="1.0" encoding="UTF-8" standalone="no"?>
<svg
   xmlns:dc="http://purl.org/dc/elements/1.1/"
   xmlns:cc="http://creativecommons.org/ns#"
   xmlns:rdf="http://www.w3.org/1999/02/22-rdf-syntax-ns#"
   xmlns:svg="http://www.w3.org/2000/svg"
   xmlns="http://www.w3.org/2000/svg"
   xmlns:sodipodi="http://sodipodi.sourceforge.net/DTD/sodipodi-0.dtd"
   xmlns:inkscape="http://www.inkscape.org/namespaces/inkscape"
   width="552.6mm"
   height="164.2mm"
   viewBox="0 0 552.6 164.2"
   version="1.1"
   preserveAspectRatio="xMidYMid meet"
   id="svg1215"
   sodipodi:docname="doos_kluis.svg"
   inkscape:version="1.0.2-2 (e86c870879, 2021-01-15)">
  <metadata
     id="metadata1221">
    <rdf:RDF>
      <cc:Work
         rdf:about="">
        <dc:format>image/svg+xml</dc:format>
        <dc:type
           rdf:resource="http://purl.org/dc/dcmitype/StillImage" />
        <dc:title></dc:title>
      </cc:Work>
    </rdf:RDF>
  </metadata>
  <defs
     id="defs1219" />
  <sodipodi:namedview
     pagecolor="#ffffff"
     bordercolor="#666666"
     borderopacity="1"
     objecttolerance="10"
     gridtolerance="10"
     guidetolerance="10"
     inkscape:pageopacity="0"
     inkscape:pageshadow="2"
     inkscape:window-width="1920"
     inkscape:window-height="1051"
     id="namedview1217"
     showgrid="false"
     showguides="true"
     inkscape:guide-bbox="true"
     inkscape:zoom="0.90463436"
     inkscape:cx="1087.4454"
     inkscape:cy="271.77777"
     inkscape:window-x="-9"
     inkscape:window-y="-9"
     inkscape:window-maximized="1"
     inkscape:current-layer="svg1215">
    <sodipodi:guide
       position="185.2,126.00001"
       orientation="1,0"
       id="guide1225" />
    <sodipodi:guide
       position="191.2,155.00001"
       orientation="0,-1"
       id="guide1227" />
    <sodipodi:guide
       position="200.2,144.00001"
       orientation="1,0"
       id="guide1284" />
    <sodipodi:guide
       position="200.2,76.000005"
       orientation="0,-1"
       id="guide1314" />
  </sodipodi:namedview>
  <g
     id="svgGroup"
     stroke-linecap="round"
     fill-rule="evenodd"
     font-size="9pt"
     stroke="#000"
     stroke-width="0.25mm"
     fill="none"
     style="stroke:#000;stroke-width:0.25mm;fill:none">
    <path
       d="M 0 88.2 L 0 99.2 L 6 99.2 L 6 117.2 L 0 117.2 L 0 135.2 L 6 135.2 L 6 153.2 L 0 153.2 L 0 164.2 L 14.6 164.2 L 14.6 158.2 L 32.6 158.2 L 32.6 164.2 L 50.6 164.2 L 50.6 158.2 L 68.6 158.2 L 68.6 164.2 L 86.6 164.2 L 86.6 158.2 L 104.6 158.2 L 104.6 164.2 L 122.6 164.2 L 122.6 158.2 L 140.6 158.2 L 140.6 164.2 L 158.6 164.2 L 158.6 158.2 L 176.6 158.2 L 176.6 164.2 L 191.2 164.2 L 191.2 153.2 L 185.2 153.2 L 185.2 135.2 L 191.2 135.2 L 191.2 117.2 L 185.2 117.2 L 185.2 99.2 L 191.2 99.2 L 191.2 88.2 L 0 88.2 Z"
       id="front_outsideCutPath"
       stroke="#FF0000"
       stroke-width="0.1"
       style="stroke:#FF0000;stroke-width:0.1"
       vector-effect="non-scaling-stroke" />
    <path
       d="M 106.677 131.941 L 105.445 131.941 L 105.445 126.679 Q 105.445 126.045 105.261 125.616 A 1.466 1.466 0 0 0 104.992 125.194 A 1.389 1.389 0 0 0 104.423 124.831 Q 104.065 124.704 103.575 124.704 A 3.729 3.729 0 0 0 102.877 124.765 Q 102.122 124.909 101.704 125.395 A 2.014 2.014 0 0 0 101.354 126.007 Q 101.111 126.656 101.111 127.673 L 101.111 131.941 L 99.879 131.941 L 99.879 123.806 L 100.881 123.806 L 101.081 124.92 L 101.14 124.92 A 2.495 2.495 0 0 1 102.118 124.03 A 2.999 2.999 0 0 1 102.202 123.988 A 3.336 3.336 0 0 1 103.389 123.671 A 4.034 4.034 0 0 1 103.723 123.658 A 4.864 4.864 0 0 1 104.551 123.724 Q 105.419 123.874 105.935 124.367 A 2.135 2.135 0 0 1 106.455 125.183 Q 106.58 125.52 106.635 125.937 A 5.377 5.377 0 0 1 106.677 126.634 L 106.677 131.941 Z M 83.009 123.806 L 83.009 124.764 L 80.938 124.764 L 80.938 131.941 L 79.706 131.941 L 79.706 124.764 L 78.251 124.764 L 78.251 124.207 L 79.706 123.762 L 79.706 123.309 A 4.993 4.993 0 0 1 79.823 122.177 Q 80.183 120.634 81.659 120.367 A 3.745 3.745 0 0 1 82.326 120.311 A 3.967 3.967 0 0 1 82.887 120.353 Q 83.324 120.416 83.84 120.57 L 83.521 121.557 A 5.983 5.983 0 0 0 83.056 121.426 Q 82.821 121.371 82.614 121.347 A 2.65 2.65 0 0 0 82.304 121.327 A 1.662 1.662 0 0 0 81.903 121.373 A 1.067 1.067 0 0 0 81.272 121.791 Q 80.938 122.255 80.938 123.279 L 80.938 123.806 L 83.009 123.806 Z M 112.949 130.924 L 112.949 131.866 Q 112.768 131.954 112.432 132.014 A 4.609 4.609 0 0 1 112.359 132.026 Q 111.969 132.089 111.657 132.089 Q 109.775 132.089 109.394 130.507 A 3.873 3.873 0 0 1 109.297 129.603 L 109.297 124.764 L 108.132 124.764 L 108.132 124.17 L 109.297 123.658 L 109.817 121.921 L 110.529 121.921 L 110.529 123.806 L 112.889 123.806 L 112.889 124.764 L 110.529 124.764 L 110.529 129.551 Q 110.529 130.286 110.878 130.679 A 1.145 1.145 0 0 0 111.582 131.053 A 1.647 1.647 0 0 0 111.835 131.072 A 4.046 4.046 0 0 0 112.428 131.03 A 3.73 3.73 0 0 0 112.466 131.024 A 6.665 6.665 0 0 0 112.644 130.994 Q 112.814 130.962 112.932 130.929 A 1.845 1.845 0 0 0 112.949 130.924 Z M 89.176 123.747 L 89.006 124.89 Q 88.585 124.797 88.247 124.782 A 2.89 2.89 0 0 0 88.115 124.779 A 2.135 2.135 0 0 0 86.538 125.46 A 2.921 2.921 0 0 0 86.427 125.58 A 2.813 2.813 0 0 0 85.748 127.16 A 3.74 3.74 0 0 0 85.725 127.577 L 85.725 131.941 L 84.493 131.941 L 84.493 123.806 L 85.51 123.806 L 85.651 125.313 L 85.71 125.313 A 4.161 4.161 0 0 1 86.176 124.648 A 3.178 3.178 0 0 1 86.801 124.088 Q 87.44 123.658 88.204 123.658 A 5.656 5.656 0 0 1 88.71 123.679 A 4.128 4.128 0 0 1 89.176 123.747 Z M 97.606 129.104 A 6.364 6.364 0 0 0 97.719 127.866 Q 97.719 125.929 96.713 124.793 A 3.225 3.225 0 0 0 95.216 123.828 A 4.14 4.14 0 0 0 94.001 123.658 A 4.785 4.785 0 0 0 93.141 123.732 A 3.259 3.259 0 0 0 91.24 124.767 A 3.404 3.404 0 0 0 90.822 125.347 Q 90.245 126.352 90.245 127.866 Q 90.245 129.15 90.705 130.107 Q 91.165 131.065 92.012 131.577 A 3.431 3.431 0 0 0 92.799 131.927 A 3.956 3.956 0 0 0 93.949 132.089 A 4.784 4.784 0 0 0 94.784 132.019 A 3.285 3.285 0 0 0 96.717 130.972 Q 97.382 130.23 97.606 129.104 Z M 91.522 127.866 A 6.239 6.239 0 0 0 91.581 128.757 Q 91.647 129.21 91.784 129.576 A 2.585 2.585 0 0 0 92.145 130.241 Q 92.769 131.057 93.978 131.057 A 2.862 2.862 0 0 0 94.733 130.964 A 1.992 1.992 0 0 0 95.815 130.245 A 2.645 2.645 0 0 0 96.227 129.443 Q 96.348 129.072 96.401 128.619 A 6.49 6.49 0 0 0 96.442 127.866 Q 96.442 126.315 95.815 125.51 A 2.027 2.027 0 0 0 94.555 124.758 A 3.107 3.107 0 0 0 93.963 124.704 A 2.932 2.932 0 0 0 93.233 124.79 A 1.962 1.962 0 0 0 92.138 125.498 A 2.547 2.547 0 0 0 91.742 126.264 Q 91.522 126.926 91.522 127.866 Z"
       id="front_labelLayer"
       stroke="#777777"
       fill="#777777"
       style="stroke:#777777;fill:#777777"
       vector-effect="non-scaling-stroke" />
    <path
       d="M 200.2 88.2 L 200.2 99.2 L 194.2 99.2 L 194.2 117.2 L 200.2 117.2 L 200.2 135.2 L 194.2 135.2 L 194.2 153.2 L 200.2 153.2 L 200.2 164.2 L 213.3 164.2 L 213.3 158.2 L 231.3 158.2 L 231.3 164.2 L 249.3 164.2 L 249.3 158.2 L 267.3 158.2 L 267.3 164.2 L 285.3 164.2 L 285.3 158.2 L 303.3 158.2 L 303.3 164.2 L 321.3 164.2 L 321.3 158.2 L 339.3 158.2 L 339.3 164.2 L 352.4 164.2 L 352.4 153.2 L 358.4 153.2 L 358.4 135.2 L 352.4 135.2 L 352.4 117.2 L 358.4 117.2 L 358.4 99.2 L 352.4 99.2 L 352.4 88.2 L 200.2 88.2 Z"
       id="left_outsideCutPath"
       stroke="#FF0000"
       stroke-width="0.1"
       style="stroke:#FF0000;stroke-width:0.1"
       vector-effect="non-scaling-stroke" />
    <path
       d="M 281.707 123.806 L 281.707 124.764 L 279.636 124.764 L 279.636 131.941 L 278.404 131.941 L 278.404 124.764 L 276.949 124.764 L 276.949 124.207 L 278.404 123.762 L 278.404 123.309 A 4.993 4.993 0 0 1 278.521 122.177 Q 278.881 120.634 280.357 120.367 A 3.745 3.745 0 0 1 281.024 120.311 A 3.967 3.967 0 0 1 281.585 120.353 Q 282.022 120.416 282.538 120.57 L 282.219 121.557 A 5.983 5.983 0 0 0 281.754 121.426 Q 281.519 121.371 281.312 121.347 A 2.65 2.65 0 0 0 281.002 121.327 A 1.662 1.662 0 0 0 280.601 121.373 A 1.067 1.067 0 0 0 279.97 121.791 Q 279.636 122.255 279.636 123.279 L 279.636 123.806 L 281.707 123.806 Z M 275.94 127.317 L 275.94 128.096 L 270.337 128.096 A 4.945 4.945 0 0 0 270.423 128.924 Q 270.588 129.76 271.06 130.271 A 2.239 2.239 0 0 0 272.236 130.933 A 3.392 3.392 0 0 0 272.994 131.013 Q 274.307 131.013 275.591 130.464 L 275.591 131.562 Q 274.938 131.844 274.355 131.967 A 5.172 5.172 0 0 1 273.842 132.046 Q 273.59 132.073 273.304 132.083 A 10.037 10.037 0 0 1 272.949 132.089 A 4.788 4.788 0 0 1 271.751 131.947 A 3.39 3.39 0 0 1 270.103 130.991 A 3.626 3.626 0 0 1 269.235 129.398 Q 269.06 128.741 269.06 127.94 A 6.469 6.469 0 0 1 269.18 126.657 Q 269.338 125.878 269.703 125.271 A 3.648 3.648 0 0 1 270.029 124.816 A 3.157 3.157 0 0 1 272.33 123.668 A 4.355 4.355 0 0 1 272.63 123.658 A 3.754 3.754 0 0 1 273.687 123.799 A 2.856 2.856 0 0 1 275.049 124.664 A 3.445 3.445 0 0 1 275.83 126.238 A 5.014 5.014 0 0 1 275.94 127.317 Z M 286.932 130.924 L 286.932 131.866 Q 286.751 131.954 286.415 132.014 A 4.609 4.609 0 0 1 286.342 132.026 Q 285.952 132.089 285.64 132.089 Q 283.758 132.089 283.377 130.507 A 3.873 3.873 0 0 1 283.28 129.603 L 283.28 124.764 L 282.115 124.764 L 282.115 124.17 L 283.28 123.658 L 283.8 121.921 L 284.512 121.921 L 284.512 123.806 L 286.872 123.806 L 286.872 124.764 L 284.512 124.764 L 284.512 129.551 Q 284.512 130.286 284.861 130.679 A 1.145 1.145 0 0 0 285.565 131.053 A 1.647 1.647 0 0 0 285.819 131.072 A 4.046 4.046 0 0 0 286.411 131.03 A 3.73 3.73 0 0 0 286.449 131.024 A 6.665 6.665 0 0 0 286.627 130.994 Q 286.797 130.962 286.915 130.929 A 1.845 1.845 0 0 0 286.932 130.924 Z M 266.9 120.392 L 266.9 131.941 L 265.668 131.941 L 265.668 120.392 L 266.9 120.392 Z M 270.366 127.094 L 274.619 127.094 A 4.198 4.198 0 0 0 274.568 126.419 Q 274.509 126.057 274.381 125.767 A 1.906 1.906 0 0 0 274.099 125.309 A 1.688 1.688 0 0 0 273.083 124.731 A 2.532 2.532 0 0 0 272.615 124.689 A 2.429 2.429 0 0 0 271.913 124.786 A 1.876 1.876 0 0 0 271.053 125.328 A 2.434 2.434 0 0 0 270.569 126.144 Q 270.415 126.565 270.366 127.094 Z"
       id="left_labelLayer"
       stroke="#777777"
       fill="#777777"
       style="stroke:#777777;fill:#777777"
       vector-effect="non-scaling-stroke" />
    <path
       d="M 0 9.2 L 0 20.2 L 6 20.2 L 6 38.2 L 0 38.2 L 0 56.2 L 6 56.2 L 6 74.2 L 0 74.2 L 0 85.2 L 14.6 85.2 L 14.6 79.2 L 32.6 79.2 L 32.6 85.2 L 50.6 85.2 L 50.6 79.2 L 68.6 79.2 L 68.6 85.2 L 86.6 85.2 L 86.6 79.2 L 104.6 79.2 L 104.6 85.2 L 122.6 85.2 L 122.6 79.2 L 140.6 79.2 L 140.6 85.2 L 158.6 85.2 L 158.6 79.2 L 176.6 79.2 L 176.6 85.2 L 191.2 85.2 L 191.2 74.2 L 185.2 74.2 L 185.2 56.2 L 191.2 56.2 L 191.2 38.2 L 185.2 38.2 L 185.2 20.2 L 191.2 20.2 L 191.2 9.2 L 0 9.2 Z"
       id="back_outsideCutPath"
       stroke="#FF0000"
       stroke-width="0.1"
       style="stroke:#FF0000;stroke-width:0.1"
       vector-effect="non-scaling-stroke" />
    <path
       d="M 106.005 48.736 L 106.065 48.736 A 7.293 7.293 0 0 1 106.245 48.492 Q 106.453 48.222 106.749 47.878 A 26.472 26.472 0 0 1 107.037 47.549 L 109.664 44.766 L 111.127 44.766 L 107.831 48.232 L 111.357 52.9 L 109.865 52.9 L 106.993 49.055 L 106.065 49.857 L 106.065 52.9 L 104.848 52.9 L 104.848 41.351 L 106.065 41.351 L 106.065 47.475 Q 106.065 47.875 106.008 48.705 A 50.343 50.343 0 0 1 106.005 48.736 Z M 81.075 51.853 L 80.986 51.853 L 80.727 52.9 L 79.843 52.9 L 79.843 41.351 L 81.075 41.351 L 81.075 44.157 A 25.687 25.687 0 0 1 81.061 45.025 Q 81.047 45.463 81.016 45.849 L 81.075 45.849 A 2.801 2.801 0 0 1 83.12 44.662 A 4.208 4.208 0 0 1 83.629 44.632 A 3.766 3.766 0 0 1 84.688 44.773 A 2.819 2.819 0 0 1 86.119 45.727 A 3.63 3.63 0 0 1 86.755 46.953 Q 86.912 47.458 86.97 48.063 A 7.908 7.908 0 0 1 87.005 48.825 A 7.224 7.224 0 0 1 86.91 50.041 Q 86.799 50.688 86.56 51.208 A 3.463 3.463 0 0 1 86.111 51.939 A 2.917 2.917 0 0 1 84.038 53.029 A 4.179 4.179 0 0 1 83.629 53.048 A 3.737 3.737 0 0 1 82.689 52.934 A 3.252 3.252 0 0 1 82.178 52.755 Q 81.521 52.462 81.075 51.853 Z M 95.073 52.9 L 94.16 52.9 L 93.915 51.742 L 93.856 51.742 Q 93.426 52.282 92.998 52.576 A 2.27 2.27 0 0 1 92.642 52.777 Q 92.144 53.001 91.441 53.04 A 5.545 5.545 0 0 1 91.132 53.048 A 3.781 3.781 0 0 1 90.363 52.975 Q 89.892 52.877 89.531 52.649 A 2.122 2.122 0 0 1 89.236 52.425 Q 88.549 51.801 88.549 50.651 A 2.132 2.132 0 0 1 89.762 48.639 Q 90.735 48.121 92.49 48.068 L 93.871 48.024 L 93.871 47.519 Q 93.871 46.562 93.459 46.105 Q 93.047 45.649 92.141 45.649 A 4.011 4.011 0 0 0 91.218 45.764 Q 90.573 45.917 89.841 46.272 L 89.462 45.33 A 5.68 5.68 0 0 1 90.558 44.879 A 6.466 6.466 0 0 1 90.779 44.817 A 5.706 5.706 0 0 1 92.216 44.632 Q 93.125 44.632 93.741 44.885 A 2.097 2.097 0 0 1 94.372 45.278 Q 95.073 45.923 95.073 47.348 L 95.073 52.9 Z M 103.037 45.04 L 102.658 46.087 A 5.481 5.481 0 0 0 102.064 45.889 A 6.546 6.546 0 0 0 101.768 45.816 Q 101.285 45.708 100.914 45.708 Q 98.435 45.708 98.435 48.87 Q 98.435 50.369 99.04 51.171 A 1.957 1.957 0 0 0 100.308 51.928 A 2.981 2.981 0 0 0 100.832 51.972 A 5.157 5.157 0 0 0 102.255 51.765 A 6.368 6.368 0 0 0 102.918 51.534 L 102.918 52.625 Q 102.217 52.989 101.204 53.04 A 6.756 6.756 0 0 1 100.862 53.048 A 4.605 4.605 0 0 1 99.742 52.92 A 3.122 3.122 0 0 1 98.127 51.961 Q 97.291 51.022 97.177 49.41 A 7.45 7.45 0 0 1 97.159 48.885 A 6.798 6.798 0 0 1 97.264 47.649 Q 97.392 46.959 97.674 46.416 A 3.397 3.397 0 0 1 98.142 45.73 A 3.19 3.19 0 0 1 99.889 44.726 A 4.836 4.836 0 0 1 100.944 44.617 A 5.56 5.56 0 0 1 102.116 44.743 A 6.149 6.149 0 0 1 102.458 44.826 Q 102.801 44.921 103.029 45.036 A 1.869 1.869 0 0 1 103.037 45.04 Z M 83.45 45.664 A 3.462 3.462 0 0 0 82.78 45.724 Q 82.028 45.873 81.632 46.387 A 2.109 2.109 0 0 0 81.327 46.969 Q 81.075 47.673 81.075 48.825 A 8.146 8.146 0 0 0 81.116 49.667 Q 81.204 50.517 81.488 51.034 A 1.858 1.858 0 0 0 81.647 51.278 Q 82.159 51.94 83.226 52.009 A 3.961 3.961 0 0 0 83.48 52.017 A 2.456 2.456 0 0 0 84.178 51.923 A 1.772 1.772 0 0 0 85.172 51.189 Q 85.57 50.598 85.683 49.638 A 7.059 7.059 0 0 0 85.729 48.81 Q 85.729 47.305 85.229 46.526 A 2.044 2.044 0 0 0 85.172 46.443 A 1.797 1.797 0 0 0 84.028 45.719 A 2.849 2.849 0 0 0 83.45 45.664 Z M 93.841 49.634 L 93.841 48.9 L 92.609 48.951 A 9.046 9.046 0 0 0 91.886 49.004 Q 91.173 49.087 90.727 49.284 A 1.892 1.892 0 0 0 90.49 49.408 A 1.315 1.315 0 0 0 89.863 50.362 A 1.946 1.946 0 0 0 89.841 50.666 A 1.761 1.761 0 0 0 89.884 51.07 Q 89.957 51.38 90.153 51.594 A 1.097 1.097 0 0 0 90.245 51.683 A 1.341 1.341 0 0 0 90.748 51.95 Q 90.946 52.008 91.185 52.025 A 2.771 2.771 0 0 0 91.377 52.032 A 3.392 3.392 0 0 0 92.11 51.957 Q 92.753 51.815 93.184 51.401 Q 93.837 50.773 93.841 49.647 A 3.956 3.956 0 0 0 93.841 49.634 Z"
       id="back_labelLayer"
       stroke="#777777"
       fill="#777777"
       style="stroke:#777777;fill:#777777"
       vector-effect="non-scaling-stroke" />
    <path
       d="M 200.2 9.2 L 200.2 20.2 L 194.2 20.2 L 194.2 38.2 L 200.2 38.2 L 200.2 56.2 L 194.2 56.2 L 194.2 74.2 L 200.2 74.2 L 200.2 85.2 L 213.3 85.2 L 213.3 79.2 L 231.3 79.2 L 231.3 85.2 L 249.3 85.2 L 249.3 79.2 L 267.3 79.2 L 267.3 85.2 L 285.3 85.2 L 285.3 79.2 L 303.3 79.2 L 303.3 85.2 L 321.3 85.2 L 321.3 79.2 L 339.3 79.2 L 339.3 85.2 L 352.4 85.2 L 352.4 74.2 L 358.4 74.2 L 358.4 56.2 L 352.4 56.2 L 352.4 38.2 L 358.4 38.2 L 358.4 20.2 L 352.4 20.2 L 352.4 9.2 L 200.2 9.2 Z"
       id="right_outsideCutPath"
       stroke="#FF0000"
       stroke-width="0.1"
       style="stroke:#FF0000;stroke-width:0.1"
       vector-effect="non-scaling-stroke" />
    <path
       d="M 285.752 51.148 L 284.52 51.148 L 284.52 45.886 Q 284.52 45.252 284.336 44.823 A 1.466 1.466 0 0 0 284.067 44.402 A 1.389 1.389 0 0 0 283.497 44.038 Q 283.139 43.912 282.649 43.912 Q 281.365 43.912 280.775 44.61 Q 280.236 45.248 280.19 46.63 A 7.952 7.952 0 0 0 280.185 46.896 L 280.185 51.148 L 278.953 51.148 L 278.953 39.6 L 280.185 39.6 L 280.185 43.096 A 11.083 11.083 0 0 1 280.178 43.521 Q 280.164 43.876 280.126 44.142 L 280.2 44.142 Q 280.564 43.556 281.236 43.218 A 3.163 3.163 0 0 1 282.274 42.91 A 3.999 3.999 0 0 1 282.768 42.88 A 4.999 4.999 0 0 1 283.608 42.946 Q 284.487 43.096 285.006 43.589 Q 285.585 44.14 285.715 45.194 A 5.328 5.328 0 0 1 285.752 45.842 L 285.752 51.148 Z M 274.471 43.014 L 277.283 43.014 L 277.283 43.793 L 275.777 43.971 A 2.002 2.002 0 0 1 275.95 44.229 Q 276.026 44.363 276.095 44.522 A 3.798 3.798 0 0 1 276.148 44.651 A 2.37 2.37 0 0 1 276.288 45.217 A 3.044 3.044 0 0 1 276.311 45.597 A 2.824 2.824 0 0 1 276.182 46.472 A 2.284 2.284 0 0 1 275.495 47.504 A 2.732 2.732 0 0 1 274.42 48.07 Q 274.013 48.185 273.53 48.21 A 5.351 5.351 0 0 1 273.253 48.217 A 3.96 3.96 0 0 1 272.795 48.191 A 3.344 3.344 0 0 1 272.571 48.157 A 2.192 2.192 0 0 0 272.217 48.386 Q 272.034 48.534 271.929 48.702 A 0.927 0.927 0 0 0 271.784 49.204 Q 271.784 49.528 272.042 49.687 A 0.685 0.685 0 0 0 272.058 49.697 A 0.864 0.864 0 0 0 272.25 49.776 Q 272.526 49.857 273.001 49.857 L 274.441 49.857 Q 275.762 49.857 276.471 50.414 A 1.802 1.802 0 0 1 277.141 51.562 A 2.707 2.707 0 0 1 277.179 52.032 A 2.668 2.668 0 0 1 277.027 52.954 Q 276.781 53.626 276.138 54.063 A 2.931 2.931 0 0 1 276.096 54.091 A 3.695 3.695 0 0 1 275.143 54.523 Q 274.233 54.8 272.934 54.8 Q 271.338 54.8 270.474 54.206 Q 269.609 53.612 269.609 52.529 Q 269.609 51.787 270.084 51.245 Q 270.559 50.703 271.42 50.51 A 1.279 1.279 0 0 1 270.924 50.109 A 1.518 1.518 0 0 1 270.897 50.072 A 1.142 1.142 0 0 1 270.687 49.455 A 1.415 1.415 0 0 1 270.685 49.382 A 1.409 1.409 0 0 1 270.756 48.928 A 1.249 1.249 0 0 1 270.923 48.603 Q 271.102 48.35 271.439 48.111 A 3.87 3.87 0 0 1 271.672 47.957 A 2.16 2.16 0 0 1 270.734 47.206 A 2.677 2.677 0 0 1 270.645 47.074 A 2.547 2.547 0 0 1 270.254 45.846 A 3.108 3.108 0 0 1 270.247 45.649 A 3.56 3.56 0 0 1 270.341 44.807 A 2.342 2.342 0 0 1 271.049 43.589 Q 271.741 42.964 272.932 42.879 A 5.441 5.441 0 0 1 273.32 42.866 Q 273.958 42.866 274.471 43.014 Z M 292.023 50.132 L 292.023 51.074 Q 291.842 51.161 291.507 51.221 A 4.609 4.609 0 0 1 291.433 51.234 Q 291.044 51.297 290.732 51.297 Q 288.849 51.297 288.468 49.715 A 3.873 3.873 0 0 1 288.372 48.811 L 288.372 43.971 L 287.206 43.971 L 287.206 43.378 L 288.372 42.866 L 288.891 41.129 L 289.604 41.129 L 289.604 43.014 L 291.964 43.014 L 291.964 43.971 L 289.604 43.971 L 289.604 48.759 Q 289.604 49.493 289.953 49.887 A 1.145 1.145 0 0 0 290.656 50.261 A 1.647 1.647 0 0 0 290.91 50.28 A 4.046 4.046 0 0 0 291.503 50.238 A 3.73 3.73 0 0 0 291.541 50.232 A 6.665 6.665 0 0 0 291.719 50.201 Q 291.889 50.17 292.007 50.136 A 1.845 1.845 0 0 0 292.023 50.132 Z M 265.26 42.955 L 265.089 44.098 Q 264.669 44.005 264.331 43.989 A 2.89 2.89 0 0 0 264.199 43.986 A 2.135 2.135 0 0 0 262.621 44.667 A 2.921 2.921 0 0 0 262.51 44.788 A 2.813 2.813 0 0 0 261.831 46.368 A 3.74 3.74 0 0 0 261.809 46.784 L 261.809 51.148 L 260.577 51.148 L 260.577 43.014 L 261.594 43.014 L 261.735 44.521 L 261.794 44.521 A 4.161 4.161 0 0 1 262.259 43.856 A 3.178 3.178 0 0 1 262.885 43.296 Q 263.523 42.866 264.288 42.866 A 5.656 5.656 0 0 1 264.794 42.887 A 4.128 4.128 0 0 1 265.26 42.955 Z M 268.013 43.014 L 268.013 51.148 L 266.781 51.148 L 266.781 43.014 L 268.013 43.014 Z M 274.047 50.963 L 272.571 50.963 A 2.832 2.832 0 0 0 272.06 51.006 Q 271.77 51.059 271.541 51.178 A 1.443 1.443 0 0 0 271.264 51.364 A 1.298 1.298 0 0 0 270.838 52.1 A 1.971 1.971 0 0 0 270.797 52.514 A 1.237 1.237 0 0 0 270.878 52.973 Q 270.995 53.269 271.281 53.468 A 1.446 1.446 0 0 0 271.353 53.516 Q 271.907 53.856 272.939 53.857 A 6.108 6.108 0 0 0 272.949 53.857 Q 274.335 53.857 275.078 53.487 A 2.046 2.046 0 0 0 275.246 53.394 A 1.797 1.797 0 0 0 275.663 53.045 A 1.347 1.347 0 0 0 275.992 52.136 A 1.667 1.667 0 0 0 275.961 51.805 Q 275.88 51.405 275.584 51.219 Q 275.273 51.024 274.544 50.977 A 7.839 7.839 0 0 0 274.047 50.963 Z M 271.465 45.619 A 2.405 2.405 0 0 0 271.514 46.123 Q 271.581 46.436 271.739 46.67 A 1.318 1.318 0 0 0 271.947 46.911 Q 272.382 47.305 273.123 47.344 A 3.172 3.172 0 0 0 273.29 47.348 Q 274.714 47.348 275.014 46.257 A 2.495 2.495 0 0 0 275.094 45.597 Q 275.094 43.764 273.268 43.764 A 2.585 2.585 0 0 0 272.741 43.814 Q 272.246 43.917 271.932 44.231 Q 271.535 44.628 271.475 45.351 A 3.241 3.241 0 0 0 271.465 45.619 Z M 266.885 40.19 A 0.576 0.576 0 0 0 266.758 40.371 Q 266.678 40.546 266.678 40.81 Q 266.678 41.225 266.885 41.429 Q 267.093 41.634 267.405 41.634 Q 267.702 41.634 267.917 41.429 A 0.601 0.601 0 0 0 268.034 41.274 Q 268.088 41.173 268.112 41.043 A 1.275 1.275 0 0 0 268.132 40.81 A 1.409 1.409 0 0 0 268.126 40.676 Q 268.115 40.555 268.081 40.455 A 0.622 0.622 0 0 0 267.917 40.194 A 0.726 0.726 0 0 0 267.405 39.993 A 0.94 0.94 0 0 0 267.343 39.995 A 0.712 0.712 0 0 0 266.885 40.19 Z"
       id="right_labelLayer"
       stroke="#777777"
       fill="#777777"
       style="stroke:#777777;fill:#777777"
       vector-effect="non-scaling-stroke" />
    <path
       d="M 367.4 6 L 367.4 19.1 L 361.4 19.1 L 361.4 37.1 L 367.4 37.1 L 367.4 55.1 L 361.4 55.1 L 361.4 73.1 L 367.4 73.1 L 367.4 91.1 L 361.4 91.1 L 361.4 109.1 L 367.4 109.1 L 367.4 127.1 L 361.4 127.1 L 361.4 145.1 L 367.4 145.1 L 367.4 158.2 L 376 158.2 L 376 164.2 L 394 164.2 L 394 158.2 L 412 158.2 L 412 164.2 L 430 164.2 L 430 158.2 L 448 158.2 L 448 164.2 L 466 164.2 L 466 158.2 L 484 158.2 L 484 164.2 L 502 164.2 L 502 158.2 L 520 158.2 L 520 164.2 L 538 164.2 L 538 158.2 L 546.6 158.2 L 546.6 145.1 L 552.6 145.1 L 552.6 127.1 L 546.6 127.1 L 546.6 109.1 L 552.6 109.1 L 552.6 91.1 L 546.6 91.1 L 546.6 73.1 L 552.6 73.1 L 552.6 55.1 L 546.6 55.1 L 546.6 37.1 L 552.6 37.1 L 552.6 19.1 L 546.6 19.1 L 546.6 6 L 538 6 L 538 0 L 520 0 L 520 6 L 502 6 L 502 0 L 484 0 L 484 6 L 466 6 L 466 0 L 448 0 L 448 6 L 430 6 L 430 0 L 412 0 L 412 6 L 394 6 L 394 0 L 376 0 L 376 6 L 367.4 6 Z"
       id="bottom_outsideCutPath"
       stroke="#FF0000"
       stroke-width="0.1"
       style="stroke:#FF0000;stroke-width:0.1"
       vector-effect="non-scaling-stroke" />
    <path
       d="M 511.022 94.415 L 508.361 94.415 L 508.361 82.982 A 7.853 7.853 0 0 0 508.281 81.827 Q 508.194 81.237 508.008 80.762 A 3.217 3.217 0 0 0 507.463 79.831 Q 506.677 78.912 505.131 78.797 A 6.179 6.179 0 0 0 504.672 78.78 A 6.849 6.849 0 0 0 503.278 78.913 Q 502.45 79.085 501.825 79.482 A 3.525 3.525 0 0 0 501 80.207 A 4.399 4.399 0 0 0 500.254 81.557 Q 499.817 82.784 499.814 84.574 A 14.802 14.802 0 0 0 499.814 84.601 L 499.814 94.415 L 497.152 94.415 L 497.152 82.982 A 7.853 7.853 0 0 0 497.073 81.827 Q 496.985 81.237 496.8 80.762 A 3.217 3.217 0 0 0 496.254 79.831 Q 495.477 78.922 493.943 78.799 A 6.233 6.233 0 0 0 493.448 78.78 A 6.611 6.611 0 0 0 492.081 78.912 Q 491.237 79.091 490.608 79.511 A 3.489 3.489 0 0 0 489.784 80.28 Q 488.621 81.779 488.621 85.194 L 488.621 94.415 L 485.959 94.415 L 485.959 76.84 L 488.124 76.84 L 488.557 79.245 L 488.685 79.245 A 5.231 5.231 0 0 1 490.81 77.241 A 6.32 6.32 0 0 1 493.306 76.541 A 7.633 7.633 0 0 1 493.881 76.519 A 8.715 8.715 0 0 1 495.842 76.724 Q 497.049 77.003 497.891 77.663 A 4.544 4.544 0 0 1 499.269 79.502 L 499.397 79.502 A 5.558 5.558 0 0 1 501.49 77.424 A 6.678 6.678 0 0 1 501.674 77.321 A 6.737 6.737 0 0 1 504.145 76.569 A 8.401 8.401 0 0 1 505.073 76.519 A 9.253 9.253 0 0 1 506.752 76.662 Q 507.685 76.834 508.413 77.215 A 4.387 4.387 0 0 1 509.539 78.051 A 4.584 4.584 0 0 1 510.523 79.661 Q 511.022 80.996 511.022 82.949 L 511.022 94.415 Z M 405.639 92.154 L 405.447 92.154 L 404.886 94.415 L 402.977 94.415 L 402.977 69.464 L 405.639 69.464 L 405.639 75.525 A 55.497 55.497 0 0 1 405.609 77.4 Q 405.579 78.287 405.519 79.076 A 33.234 33.234 0 0 1 405.511 79.181 L 405.639 79.181 Q 407.499 76.551 411.155 76.551 A 8.136 8.136 0 0 1 413.445 76.857 A 6.09 6.09 0 0 1 416.535 78.917 A 7.844 7.844 0 0 1 417.911 81.566 Q 418.451 83.311 418.451 85.611 A 15.607 15.607 0 0 1 418.245 88.237 Q 417.819 90.725 416.519 92.338 A 6.301 6.301 0 0 1 412.04 94.693 A 9.028 9.028 0 0 1 411.155 94.735 A 8.074 8.074 0 0 1 409.127 94.488 A 7.025 7.025 0 0 1 408.021 94.102 Q 406.601 93.469 405.639 92.154 Z M 451.019 92.218 L 451.019 94.254 Q 450.628 94.443 449.903 94.572 A 9.956 9.956 0 0 1 449.744 94.599 A 11.537 11.537 0 0 1 448.992 94.697 Q 448.586 94.735 448.229 94.735 A 6.952 6.952 0 0 1 446.18 94.46 Q 443.928 93.765 443.338 91.318 A 8.367 8.367 0 0 1 443.13 89.364 L 443.13 78.909 L 440.612 78.909 L 440.612 77.626 L 443.13 76.519 L 444.252 72.767 L 445.791 72.767 L 445.791 76.84 L 450.891 76.84 L 450.891 78.909 L 445.791 78.909 L 445.791 89.251 A 5.36 5.36 0 0 0 445.869 90.193 Q 446.033 91.111 446.545 91.689 A 2.473 2.473 0 0 0 448.065 92.498 A 3.558 3.558 0 0 0 448.614 92.538 A 8.742 8.742 0 0 0 449.894 92.447 A 8.063 8.063 0 0 0 449.977 92.434 Q 450.634 92.33 451.019 92.218 Z M 462.612 92.218 L 462.612 94.254 Q 462.221 94.443 461.496 94.572 A 9.956 9.956 0 0 1 461.337 94.599 A 11.537 11.537 0 0 1 460.585 94.697 Q 460.18 94.735 459.822 94.735 A 6.952 6.952 0 0 1 457.773 94.46 Q 455.521 93.765 454.932 91.318 A 8.367 8.367 0 0 1 454.723 89.364 L 454.723 78.909 L 452.205 78.909 L 452.205 77.626 L 454.723 76.519 L 455.845 72.767 L 457.385 72.767 L 457.385 76.84 L 462.484 76.84 L 462.484 78.909 L 457.385 78.909 L 457.385 89.251 A 5.36 5.36 0 0 0 457.462 90.193 Q 457.626 91.111 458.138 91.689 A 2.473 2.473 0 0 0 459.659 92.498 A 3.558 3.558 0 0 0 460.207 92.538 A 8.742 8.742 0 0 0 461.488 92.447 A 8.063 8.063 0 0 0 461.57 92.434 Q 462.227 92.33 462.612 92.218 Z M 438.271 85.611 Q 438.271 89.909 436.106 92.322 A 7.097 7.097 0 0 1 431.93 94.584 A 10.336 10.336 0 0 1 430.125 94.735 A 8.548 8.548 0 0 1 427.641 94.385 A 7.412 7.412 0 0 1 425.94 93.629 A 7.206 7.206 0 0 1 423.311 90.833 A 8.749 8.749 0 0 1 423.118 90.454 A 9.847 9.847 0 0 1 422.291 87.768 A 13.316 13.316 0 0 1 422.123 85.611 A 13.821 13.821 0 0 1 422.366 82.938 Q 422.673 81.382 423.369 80.169 A 7.354 7.354 0 0 1 424.272 78.917 A 7.041 7.041 0 0 1 428.38 76.679 A 10.338 10.338 0 0 1 430.237 76.519 A 8.944 8.944 0 0 1 432.863 76.886 A 6.968 6.968 0 0 1 436.098 78.973 A 8.289 8.289 0 0 1 437.909 82.483 Q 438.271 83.903 438.271 85.611 Z M 481.293 85.611 Q 481.293 89.909 479.128 92.322 A 7.097 7.097 0 0 1 474.952 94.584 A 10.336 10.336 0 0 1 473.147 94.735 A 8.548 8.548 0 0 1 470.663 94.385 A 7.412 7.412 0 0 1 468.962 93.629 A 7.206 7.206 0 0 1 466.334 90.833 A 8.749 8.749 0 0 1 466.14 90.454 A 9.847 9.847 0 0 1 465.313 87.768 A 13.316 13.316 0 0 1 465.146 85.611 A 13.821 13.821 0 0 1 465.388 82.938 Q 465.695 81.382 466.391 80.169 A 7.354 7.354 0 0 1 467.294 78.917 A 7.041 7.041 0 0 1 471.403 76.679 A 10.338 10.338 0 0 1 473.26 76.519 A 8.944 8.944 0 0 1 475.885 76.886 A 6.968 6.968 0 0 1 479.12 78.973 A 8.289 8.289 0 0 1 480.931 82.483 Q 481.293 83.903 481.293 85.611 Z M 424.882 85.611 A 13.479 13.479 0 0 0 425.01 87.537 Q 425.297 89.523 426.228 90.743 A 4.363 4.363 0 0 0 429.07 92.416 A 6.611 6.611 0 0 0 430.189 92.506 A 6.183 6.183 0 0 0 431.82 92.304 A 4.303 4.303 0 0 0 434.158 90.751 A 5.714 5.714 0 0 0 435.048 89.017 Q 435.513 87.594 435.513 85.611 Q 435.513 82.26 434.158 80.52 Q 432.803 78.78 430.157 78.78 A 6.335 6.335 0 0 0 428.58 78.965 A 4.239 4.239 0 0 0 426.212 80.496 Q 424.882 82.212 424.882 85.611 Z M 467.904 85.611 A 13.479 13.479 0 0 0 468.032 87.537 Q 468.319 89.523 469.251 90.743 A 4.363 4.363 0 0 0 472.092 92.416 A 6.611 6.611 0 0 0 473.211 92.506 A 6.183 6.183 0 0 0 474.843 92.304 A 4.303 4.303 0 0 0 477.18 90.751 A 5.714 5.714 0 0 0 478.07 89.017 Q 478.535 87.594 478.535 85.611 Q 478.535 82.26 477.18 80.52 Q 475.825 78.78 473.179 78.78 A 6.335 6.335 0 0 0 471.602 78.965 A 4.239 4.239 0 0 0 469.235 80.496 Q 467.904 82.212 467.904 85.611 Z M 410.771 78.78 A 7.48 7.48 0 0 0 409.322 78.911 Q 408.497 79.074 407.87 79.441 A 3.54 3.54 0 0 0 406.842 80.344 Q 405.785 81.717 405.657 84.744 A 20.508 20.508 0 0 0 405.639 85.611 Q 405.639 88.758 406.53 90.382 A 4.015 4.015 0 0 0 406.874 90.911 Q 407.981 92.341 410.286 92.489 A 8.559 8.559 0 0 0 410.835 92.506 A 5.306 5.306 0 0 0 412.342 92.305 A 3.828 3.828 0 0 0 414.491 90.718 Q 415.35 89.441 415.595 87.366 A 15.252 15.252 0 0 0 415.693 85.579 Q 415.693 82.148 414.491 80.464 A 3.882 3.882 0 0 0 412.019 78.9 A 6.156 6.156 0 0 0 410.771 78.78 Z"
       id="bottom_labelLayer"
       stroke="#777777"
       fill="#777777"
       style="stroke:#777777;fill:#777777"
       vector-effect="non-scaling-stroke" />
  </g>
  <rect
     style="fill:none;stroke:#ff0000;stroke-width:0.906283"
     id="rect1223"
     width="24.093718"
     height="19.093718"
     x="105.10615"
     y="39.100143" />
  <rect
     style="fill:none;stroke:#ff0000;stroke-width:0.852347"
     id="rect1235"
     width="4.1476536"
     height="44.147655"
     x="273.90018"
     y="19.552132" />
  <circle
     style="fill:none;stroke:#ff0000;stroke-width:0.205665"
     id="path1233-0"
     cx="275.97665"
     cy="19.097"
     r="2.3971679" />
  <circle
     style="fill:none;stroke:#ff0000;stroke-width:0.205665"
     id="path1233-0-3"
     cx="275.97443"
     cy="63.934246"
     r="2.3971679" />
  <rect
     style="fill:none;stroke:#ff0000;stroke-width:0.852347"
     id="rect1235-3"
     width="4.1476536"
     height="44.147655"
     x="273.90018"
     y="98.552139" />
  <circle
     style="fill:none;stroke:#ff0000;stroke-width:0.205665"
     id="path1233-0-7"
     cx="275.97665"
     cy="98.097008"
     r="2.3971679" />
  <circle
     style="fill:none;stroke:#ff0000;stroke-width:0.205665"
     id="path1233-0-3-7"
     cx="275.97443"
     cy="142.93425"
     r="2.3971679" />
</svg>
