<?xml version="1.0" encoding="UTF-8" standalone="no"?>
<svg
   xmlns:dc="http://purl.org/dc/elements/1.1/"
   xmlns:cc="http://creativecommons.org/ns#"
   xmlns:rdf="http://www.w3.org/1999/02/22-rdf-syntax-ns#"
   xmlns:svg="http://www.w3.org/2000/svg"
   xmlns="http://www.w3.org/2000/svg"
   xmlns:sodipodi="http://sodipodi.sourceforge.net/DTD/sodipodi-0.dtd"
   xmlns:inkscape="http://www.inkscape.org/namespaces/inkscape"
   width="204mm"
   height="215mm"
   viewBox="0 0 204 215"
   version="1.1"
   preserveAspectRatio="xMidYMid meet"
   id="svg1337"
   sodipodi:docname="Timer.svg"
   inkscape:version="1.0.2-2 (e86c870879, 2021-01-15)">
  <metadata
     id="metadata1343">
    <rdf:RDF>
      <cc:Work
         rdf:about="">
        <dc:format>image/svg+xml</dc:format>
        <dc:type
           rdf:resource="http://purl.org/dc/dcmitype/StillImage" />
        <dc:title></dc:title>
      </cc:Work>
    </rdf:RDF>
  </metadata>
  <defs
     id="defs1341" />
  <sodipodi:namedview
     pagecolor="#ffffff"
     bordercolor="#666666"
     borderopacity="1"
     objecttolerance="10"
     gridtolerance="10"
     guidetolerance="10"
     inkscape:pageopacity="0"
     inkscape:pageshadow="2"
     inkscape:window-width="1920"
     inkscape:window-height="1051"
     id="namedview1339"
     showgrid="false"
     showguides="true"
     inkscape:guide-bbox="true"
     inkscape:zoom="1.0829457"
     inkscape:cx="677.50408"
     inkscape:cy="331.65578"
     inkscape:window-x="-9"
     inkscape:window-y="-9"
     inkscape:window-maximized="1"
     inkscape:current-layer="svg1337">
    <sodipodi:guide
       position="96.750002,71.999996"
       orientation="0,-1"
       id="guide1365" />
    <sodipodi:guide
       position="52.000001,86.249996"
       orientation="1,0"
       id="guide1367" />
  </sodipodi:namedview>
  <g
     id="svgGroup"
     stroke-linecap="round"
     fill-rule="evenodd"
     font-size="9pt"
     stroke="#000"
     stroke-width="0.25mm"
     fill="none"
     style="stroke:#000;stroke-width:0.25mm;fill:none">
    <path
       d="M 0 149 L 0 155.75 L 3 155.75 L 3 166.25 L 0 166.25 L 0 176.75 L 3 176.75 L 3 187.25 L 0 187.25 L 0 197.75 L 3 197.75 L 3 208.25 L 0 208.25 L 0 215 L 7.25 215 L 7.25 212 L 17.75 212 L 17.75 215 L 28.25 215 L 28.25 212 L 38.75 212 L 38.75 215 L 46 215 L 46 208.25 L 43 208.25 L 43 197.75 L 46 197.75 L 46 187.25 L 43 187.25 L 43 176.75 L 46 176.75 L 46 166.25 L 43 166.25 L 43 155.75 L 46 155.75 L 46 149 L 38.75 149 L 38.75 152 L 28.25 152 L 28.25 149 L 17.75 149 L 17.75 152 L 7.25 152 L 7.25 149 L 0 149 Z"
       id="front_outsideCutPath"
       stroke="#FF0000"
       stroke-width="0.1"
       style="stroke:#FF0000;stroke-width:0.1"
       vector-effect="non-scaling-stroke" />
    <path
       d="M 29.705 185.475 L 28.959 185.475 L 28.959 182.29 A 2.108 2.108 0 0 0 28.935 181.959 Q 28.907 181.785 28.848 181.646 A 0.887 0.887 0 0 0 28.685 181.391 A 0.841 0.841 0 0 0 28.34 181.171 Q 28.205 181.123 28.038 181.105 A 1.977 1.977 0 0 0 27.827 181.095 A 2.257 2.257 0 0 0 27.405 181.132 Q 27.169 181.176 26.988 181.276 A 1.051 1.051 0 0 0 26.695 181.513 Q 26.335 181.93 26.335 182.892 L 26.335 185.475 L 25.59 185.475 L 25.59 180.551 L 26.196 180.551 L 26.317 181.225 L 26.353 181.225 Q 26.583 180.861 26.996 180.661 Q 27.409 180.461 27.917 180.461 Q 28.507 180.461 28.903 180.65 A 1.34 1.34 0 0 1 29.255 180.89 Q 29.705 181.319 29.705 182.263 L 29.705 185.475 Z M 15.379 180.551 L 15.379 181.131 L 14.126 181.131 L 14.126 185.475 L 13.38 185.475 L 13.38 181.131 L 12.5 181.131 L 12.5 180.794 L 13.38 180.524 L 13.38 180.25 A 3.022 3.022 0 0 1 13.451 179.565 Q 13.669 178.631 14.562 178.469 A 2.267 2.267 0 0 1 14.966 178.435 A 2.401 2.401 0 0 1 15.306 178.461 Q 15.471 178.485 15.655 178.53 A 4.827 4.827 0 0 1 15.882 178.593 L 15.689 179.19 A 3.621 3.621 0 0 0 15.407 179.111 Q 15.265 179.077 15.14 179.062 A 1.604 1.604 0 0 0 14.952 179.051 A 1.006 1.006 0 0 0 14.71 179.078 A 0.646 0.646 0 0 0 14.328 179.332 A 0.863 0.863 0 0 0 14.214 179.562 Q 14.138 179.786 14.127 180.12 A 3.521 3.521 0 0 0 14.126 180.232 L 14.126 180.551 L 15.379 180.551 Z M 33.5 184.859 L 33.5 185.43 A 0.733 0.733 0 0 1 33.413 185.464 Q 33.321 185.495 33.188 185.519 A 2.79 2.79 0 0 1 33.143 185.526 A 3.232 3.232 0 0 1 32.933 185.554 Q 32.833 185.563 32.744 185.564 A 1.911 1.911 0 0 1 32.719 185.564 A 1.948 1.948 0 0 1 32.145 185.487 Q 31.29 185.224 31.29 184.06 L 31.29 181.131 L 30.585 181.131 L 30.585 180.771 L 31.29 180.461 L 31.605 179.41 L 32.036 179.41 L 32.036 180.551 L 33.465 180.551 L 33.465 181.131 L 32.036 181.131 L 32.036 184.028 Q 32.036 184.341 32.14 184.551 A 0.723 0.723 0 0 0 32.247 184.711 Q 32.458 184.949 32.827 184.949 A 2.449 2.449 0 0 0 33.185 184.923 A 2.258 2.258 0 0 0 33.208 184.92 A 4.034 4.034 0 0 0 33.316 184.901 Q 33.419 184.882 33.49 184.862 A 1.126 1.126 0 0 0 33.5 184.859 Z M 19.112 180.515 L 19.009 181.207 A 3.287 3.287 0 0 0 18.772 181.163 Q 18.654 181.146 18.55 181.142 A 1.749 1.749 0 0 0 18.47 181.14 A 1.292 1.292 0 0 0 17.515 181.552 A 1.768 1.768 0 0 0 17.448 181.625 Q 17.023 182.11 17.023 182.833 L 17.023 185.475 L 16.277 185.475 L 16.277 180.551 L 16.893 180.551 L 16.978 181.463 L 17.014 181.463 A 2.518 2.518 0 0 1 17.296 181.061 A 1.924 1.924 0 0 1 17.675 180.722 A 1.487 1.487 0 0 1 18.524 180.461 A 3.423 3.423 0 0 1 18.83 180.474 A 2.499 2.499 0 0 1 19.112 180.515 Z M 24.283 183.008 Q 24.283 184.212 23.676 184.888 Q 23.07 185.564 22 185.564 A 2.395 2.395 0 0 1 21.305 185.466 A 2.076 2.076 0 0 1 20.828 185.254 A 2.019 2.019 0 0 1 20.092 184.471 A 2.451 2.451 0 0 1 20.037 184.365 A 2.759 2.759 0 0 1 19.806 183.613 A 3.73 3.73 0 0 1 19.759 183.008 A 3.872 3.872 0 0 1 19.827 182.26 Q 19.961 181.579 20.361 181.133 Q 20.963 180.461 22.032 180.461 A 2.506 2.506 0 0 1 22.768 180.564 A 1.952 1.952 0 0 1 23.674 181.149 A 2.322 2.322 0 0 1 24.181 182.132 Q 24.283 182.53 24.283 183.008 Z M 20.532 183.008 A 3.776 3.776 0 0 0 20.567 183.548 Q 20.607 183.822 20.69 184.044 A 1.564 1.564 0 0 0 20.909 184.446 A 1.222 1.222 0 0 0 21.705 184.915 A 1.852 1.852 0 0 0 22.018 184.94 A 1.732 1.732 0 0 0 22.475 184.883 A 1.205 1.205 0 0 0 23.13 184.448 A 1.601 1.601 0 0 0 23.38 183.963 Q 23.453 183.738 23.485 183.464 A 3.928 3.928 0 0 0 23.51 183.008 Q 23.51 182.07 23.13 181.582 A 1.227 1.227 0 0 0 22.368 181.127 A 1.881 1.881 0 0 0 22.009 181.095 A 1.775 1.775 0 0 0 21.568 181.146 A 1.188 1.188 0 0 0 20.904 181.575 Q 20.532 182.056 20.532 183.008 Z"
       id="front_labelLayer"
       stroke="#777777"
       fill="#777777"
       style="stroke:#777777;fill:#777777"
       vector-effect="non-scaling-stroke" />
    <path
       d="M 52 149 L 52 155.75 L 49 155.75 L 49 166.25 L 52 166.25 L 52 176.75 L 49 176.75 L 49 187.25 L 52 187.25 L 52 197.75 L 49 197.75 L 49 208.25 L 52 208.25 L 52 215 L 65.25 215 L 65.25 212 L 75.75 212 L 75.75 215 L 86.25 215 L 86.25 212 L 96.75 212 L 96.75 215 L 107.25 215 L 107.25 212 L 117.75 212 L 117.75 215 L 128.25 215 L 128.25 212 L 138.75 212 L 138.75 215 L 149.25 215 L 152 215 L 152 208.25 L 155 208.25 L 155 197.75 L 152 197.75 L 152 187.25 L 155 187.25 L 155 176.75 L 152 176.75 L 152 166.25 L 155 166.25 L 155 155.75 L 152 155.75 L 152 149 L 138.75 149 L 138.75 152 L 128.25 152 L 128.25 149 L 117.75 149 L 117.75 152 L 107.25 152 L 107.25 149 L 96.75 149 L 96.75 152 L 86.25 152 L 86.25 149 L 75.75 149 L 75.75 152 L 65.25 152 L 65.25 149 L 54.75 149 L 52 149 Z"
       id="left_outsideCutPath"
       stroke="#FF0000"
       stroke-width="0.1"
       style="stroke:#FF0000;stroke-width:0.1"
       vector-effect="non-scaling-stroke" />
    <path
       d="M 106.695 179.921 L 106.695 180.753 L 104.897 180.753 L 104.897 186.985 L 103.827 186.985 L 103.827 180.753 L 102.564 180.753 L 102.564 180.269 L 103.827 179.883 L 103.827 179.489 A 4.336 4.336 0 0 1 103.928 178.507 Q 104.242 177.166 105.523 176.934 A 3.252 3.252 0 0 1 106.102 176.886 A 3.445 3.445 0 0 1 106.59 176.923 Q 106.827 176.957 107.091 177.022 A 6.926 6.926 0 0 1 107.417 177.111 L 107.14 177.968 Q 106.701 177.826 106.352 177.785 A 2.301 2.301 0 0 0 106.083 177.769 A 1.443 1.443 0 0 0 105.735 177.808 A 0.927 0.927 0 0 0 105.187 178.171 A 1.238 1.238 0 0 0 105.024 178.501 Q 104.915 178.824 104.9 179.303 A 5.052 5.052 0 0 0 104.897 179.464 L 104.897 179.921 L 106.695 179.921 Z M 101.687 182.97 L 101.687 183.647 L 96.821 183.647 A 4.294 4.294 0 0 0 96.896 184.366 Q 96.974 184.757 97.128 185.066 A 2.009 2.009 0 0 0 97.45 185.535 A 1.944 1.944 0 0 0 98.47 186.11 A 2.946 2.946 0 0 0 99.129 186.18 A 5.651 5.651 0 0 0 101.245 185.76 A 6.475 6.475 0 0 0 101.384 185.703 L 101.384 186.657 Q 100.817 186.902 100.311 187.008 A 4.491 4.491 0 0 1 99.866 187.077 Q 99.646 187.1 99.398 187.109 A 8.717 8.717 0 0 1 99.09 187.114 A 4.158 4.158 0 0 1 98.05 186.991 A 2.944 2.944 0 0 1 96.618 186.16 A 3.149 3.149 0 0 1 95.865 184.777 Q 95.713 184.207 95.713 183.511 Q 95.713 182.119 96.271 181.194 A 3.168 3.168 0 0 1 96.554 180.798 A 2.742 2.742 0 0 1 98.552 179.801 A 3.782 3.782 0 0 1 98.813 179.792 A 3.26 3.26 0 0 1 99.731 179.915 A 2.48 2.48 0 0 1 100.914 180.666 A 2.992 2.992 0 0 1 101.592 182.033 A 4.355 4.355 0 0 1 101.687 182.97 Z M 111.233 186.102 L 111.233 186.921 A 1.052 1.052 0 0 1 111.108 186.97 Q 110.975 187.015 110.784 187.049 A 4 4 0 0 1 110.721 187.059 A 4.637 4.637 0 0 1 110.418 187.099 Q 110.255 187.114 110.111 187.114 A 2.794 2.794 0 0 1 109.288 187.003 Q 108.062 186.625 108.062 184.955 L 108.062 180.753 L 107.05 180.753 L 107.05 180.237 L 108.062 179.792 L 108.513 178.284 L 109.132 178.284 L 109.132 179.921 L 111.181 179.921 L 111.181 180.753 L 109.132 180.753 L 109.132 184.91 Q 109.132 185.358 109.281 185.66 A 1.038 1.038 0 0 0 109.435 185.89 A 0.994 0.994 0 0 0 110.046 186.215 A 1.43 1.43 0 0 0 110.266 186.231 A 3.514 3.514 0 0 0 110.781 186.194 A 3.239 3.239 0 0 0 110.814 186.189 Q 111.066 186.149 111.219 186.106 A 1.605 1.605 0 0 0 111.233 186.102 Z M 93.837 176.956 L 93.837 186.985 L 92.767 186.985 L 92.767 176.956 L 93.837 176.956 Z M 96.847 182.777 L 100.54 182.777 A 3.646 3.646 0 0 0 100.496 182.19 Q 100.399 181.596 100.089 181.226 A 1.466 1.466 0 0 0 99.206 180.724 A 2.199 2.199 0 0 0 98.8 180.688 A 2.109 2.109 0 0 0 98.191 180.772 A 1.629 1.629 0 0 0 97.443 181.243 A 2.114 2.114 0 0 0 97.023 181.952 Q 96.889 182.317 96.847 182.777 Z"
       id="left_labelLayer"
       stroke="#777777"
       fill="#777777"
       style="stroke:#777777;fill:#777777"
       vector-effect="non-scaling-stroke" />
    <path
       d="M 161 112 L 161 125.25 L 158 125.25 L 158 135.75 L 161 135.75 L 161 146.25 L 158 146.25 L 158 156.75 L 161 156.75 L 161 167.25 L 158 167.25 L 158 177.75 L 161 177.75 L 161 188.25 L 158 188.25 L 158 198.75 L 161 198.75 L 161 209.25 L 161 212 L 165.25 212 L 165.25 215 L 175.75 215 L 175.75 212 L 186.25 212 L 186.25 215 L 196.75 215 L 196.75 212 L 201 212 L 201 198.75 L 204 198.75 L 204 188.25 L 201 188.25 L 201 177.75 L 204 177.75 L 204 167.25 L 201 167.25 L 201 156.75 L 204 156.75 L 204 146.25 L 201 146.25 L 201 135.75 L 204 135.75 L 204 125.25 L 201 125.25 L 201 114.75 L 201 112 L 196.75 112 L 196.75 109 L 186.25 109 L 186.25 112 L 175.75 112 L 175.75 109 L 165.25 109 L 165.25 112 L 161 112 Z"
       id="top_outsideCutPath"
       stroke="#FF0000"
       stroke-width="0.1"
       style="stroke:#FF0000;stroke-width:0.1"
       vector-effect="non-scaling-stroke" />
    <path
       d="M 184.306 163.294 L 184.252 163.294 A 7.057 7.057 0 0 1 184.299 163.815 A 5.914 5.914 0 0 1 184.306 164.111 L 184.306 166.137 L 183.561 166.137 L 183.561 159.004 L 184.167 159.004 L 184.27 159.678 L 184.306 159.678 A 2.007 2.007 0 0 1 184.596 159.348 A 1.552 1.552 0 0 1 184.976 159.094 A 1.867 1.867 0 0 1 185.511 158.937 A 2.417 2.417 0 0 1 185.852 158.914 A 2.286 2.286 0 0 1 186.497 159 A 1.689 1.689 0 0 1 187.363 159.583 Q 187.798 160.13 187.878 161.038 A 4.856 4.856 0 0 1 187.895 161.461 Q 187.895 162.674 187.354 163.345 A 1.765 1.765 0 0 1 186.099 164.005 A 2.529 2.529 0 0 1 185.852 164.017 A 2.262 2.262 0 0 1 185.283 163.948 A 1.968 1.968 0 0 1 184.973 163.84 A 1.652 1.652 0 0 1 184.306 163.294 Z M 177.02 163.312 L 177.02 163.882 A 0.733 0.733 0 0 1 176.933 163.917 Q 176.84 163.948 176.707 163.971 A 2.79 2.79 0 0 1 176.663 163.979 A 3.232 3.232 0 0 1 176.452 164.006 Q 176.353 164.016 176.264 164.017 A 1.911 1.911 0 0 1 176.238 164.017 A 1.948 1.948 0 0 1 175.664 163.94 Q 174.81 163.676 174.81 162.512 L 174.81 159.583 L 174.104 159.583 L 174.104 159.224 L 174.81 158.914 L 175.124 157.863 L 175.555 157.863 L 175.555 159.004 L 176.984 159.004 L 176.984 159.583 L 175.555 159.583 L 175.555 162.481 Q 175.555 162.793 175.66 163.004 A 0.723 0.723 0 0 0 175.767 163.163 Q 175.978 163.402 176.346 163.402 A 2.449 2.449 0 0 0 176.705 163.376 A 2.258 2.258 0 0 0 176.728 163.372 A 4.034 4.034 0 0 0 176.836 163.354 Q 176.938 163.335 177.01 163.315 A 1.126 1.126 0 0 0 177.02 163.312 Z M 182.253 161.461 Q 182.253 162.665 181.647 163.341 Q 181.04 164.017 179.971 164.017 A 2.395 2.395 0 0 1 179.275 163.919 A 2.076 2.076 0 0 1 178.799 163.707 A 2.019 2.019 0 0 1 178.062 162.924 A 2.451 2.451 0 0 1 178.008 162.818 A 2.759 2.759 0 0 1 177.777 162.065 A 3.73 3.73 0 0 1 177.73 161.461 A 3.872 3.872 0 0 1 177.798 160.712 Q 177.932 160.031 178.332 159.585 Q 178.934 158.914 180.003 158.914 A 2.506 2.506 0 0 1 180.738 159.017 A 1.952 1.952 0 0 1 181.645 159.601 A 2.322 2.322 0 0 1 182.152 160.585 Q 182.253 160.982 182.253 161.461 Z M 178.502 161.461 A 3.776 3.776 0 0 0 178.538 162 Q 178.578 162.274 178.661 162.496 A 1.564 1.564 0 0 0 178.88 162.898 A 1.222 1.222 0 0 0 179.676 163.367 A 1.852 1.852 0 0 0 179.989 163.393 A 1.732 1.732 0 0 0 180.446 163.336 A 1.205 1.205 0 0 0 181.101 162.901 A 1.601 1.601 0 0 0 181.35 162.415 Q 181.424 162.191 181.456 161.917 A 3.928 3.928 0 0 0 181.481 161.461 Q 181.481 160.522 181.101 160.035 A 1.227 1.227 0 0 0 180.338 159.58 A 1.881 1.881 0 0 0 179.98 159.547 A 1.775 1.775 0 0 0 179.538 159.599 A 1.188 1.188 0 0 0 178.875 160.028 Q 178.502 160.509 178.502 161.461 Z M 184.306 161.295 L 184.306 161.461 Q 184.306 162.342 184.556 162.798 A 1.125 1.125 0 0 0 184.652 162.946 A 1.082 1.082 0 0 0 185.201 163.316 Q 185.384 163.373 185.608 163.388 A 2.398 2.398 0 0 0 185.762 163.393 A 1.256 1.256 0 0 0 186.25 163.301 Q 186.552 163.175 186.761 162.876 A 1.803 1.803 0 0 0 187.008 162.349 Q 187.123 161.962 187.123 161.452 Q 187.123 160.848 186.967 160.428 A 1.581 1.581 0 0 0 186.761 160.039 A 1.16 1.16 0 0 0 185.913 159.556 A 1.604 1.604 0 0 0 185.744 159.547 A 2.149 2.149 0 0 0 185.342 159.582 Q 185.119 159.625 184.947 159.719 A 0.985 0.985 0 0 0 184.652 159.965 Q 184.315 160.383 184.306 161.295 Z"
       id="top_labelLayer"
       stroke="#777777"
       fill="#777777"
       style="stroke:#777777;fill:#777777"
       vector-effect="non-scaling-stroke" />
    <path
       d="M 0 80 L 0 86.75 L 3 86.75 L 3 97.25 L 0 97.25 L 0 107.75 L 3 107.75 L 3 118.25 L 0 118.25 L 0 128.75 L 3 128.75 L 3 139.25 L 0 139.25 L 0 146 L 7.25 146 L 7.25 143 L 17.75 143 L 17.75 146 L 28.25 146 L 28.25 143 L 38.75 143 L 38.75 146 L 46 146 L 46 139.25 L 43 139.25 L 43 128.75 L 46 128.75 L 46 118.25 L 43 118.25 L 43 107.75 L 46 107.75 L 46 97.25 L 43 97.25 L 43 86.75 L 46 86.75 L 46 80 L 38.75 80 L 38.75 83 L 28.25 83 L 28.25 80 L 17.75 80 L 17.75 83 L 7.25 83 L 7.25 80 L 0 80 Z"
       id="back_outsideCutPath"
       stroke="#FF0000"
       stroke-width="0.1"
       style="stroke:#FF0000;stroke-width:0.1"
       vector-effect="non-scaling-stroke" />
    <path
       d="M 29.298 113.93 L 29.334 113.93 A 4.415 4.415 0 0 1 29.443 113.782 Q 29.626 113.545 29.922 113.211 L 31.513 111.527 L 32.398 111.527 L 30.403 113.624 L 32.537 116.45 L 31.634 116.45 L 29.896 114.123 L 29.334 114.608 L 29.334 116.45 L 28.597 116.45 L 28.597 109.46 L 29.334 109.46 L 29.334 113.166 A 4.97 4.97 0 0 1 29.332 113.307 Q 29.325 113.537 29.299 113.911 A 29.918 29.918 0 0 1 29.298 113.93 Z M 14.209 115.817 L 14.155 115.817 L 13.998 116.45 L 13.463 116.45 L 13.463 109.46 L 14.209 109.46 L 14.209 111.158 A 15.547 15.547 0 0 1 14.2 111.683 Q 14.192 111.932 14.175 112.153 A 9.328 9.328 0 0 1 14.173 112.182 L 14.209 112.182 A 1.695 1.695 0 0 1 15.446 111.464 A 2.547 2.547 0 0 1 15.754 111.446 A 2.279 2.279 0 0 1 16.396 111.531 A 1.706 1.706 0 0 1 17.261 112.108 A 2.197 2.197 0 0 1 17.647 112.85 Q 17.741 113.156 17.777 113.522 A 4.786 4.786 0 0 1 17.798 113.984 Q 17.798 115.197 17.257 115.868 A 1.765 1.765 0 0 1 16.002 116.528 A 2.529 2.529 0 0 1 15.754 116.54 A 2.262 2.262 0 0 1 15.186 116.47 A 1.968 1.968 0 0 1 14.876 116.362 A 1.652 1.652 0 0 1 14.209 115.817 Z M 22.681 116.45 L 22.129 116.45 L 21.98 115.749 L 21.944 115.749 Q 21.684 116.076 21.425 116.254 A 1.374 1.374 0 0 1 21.21 116.376 A 1.72 1.72 0 0 1 20.855 116.488 Q 20.682 116.524 20.483 116.535 A 3.356 3.356 0 0 1 20.296 116.54 A 2.288 2.288 0 0 1 19.83 116.495 Q 19.421 116.41 19.148 116.162 A 1.226 1.226 0 0 1 18.778 115.516 A 1.876 1.876 0 0 1 18.732 115.089 A 1.29 1.29 0 0 1 19.466 113.871 Q 20.056 113.558 21.118 113.526 L 21.953 113.499 L 21.953 113.193 Q 21.953 112.614 21.704 112.337 A 0.757 0.757 0 0 0 21.394 112.135 Q 21.27 112.09 21.116 112.072 A 1.842 1.842 0 0 0 20.907 112.061 A 2.428 2.428 0 0 0 20.348 112.131 Q 19.957 112.223 19.514 112.438 L 19.285 111.868 A 3.438 3.438 0 0 1 19.949 111.595 A 3.914 3.914 0 0 1 20.082 111.558 A 3.453 3.453 0 0 1 20.952 111.446 A 3.149 3.149 0 0 1 21.431 111.48 Q 21.678 111.518 21.875 111.599 A 1.269 1.269 0 0 1 22.257 111.836 A 1.181 1.181 0 0 1 22.561 112.307 Q 22.632 112.5 22.661 112.739 A 2.934 2.934 0 0 1 22.681 113.09 L 22.681 116.45 Z M 27.501 111.693 L 27.272 112.326 A 3.317 3.317 0 0 0 26.912 112.206 A 3.962 3.962 0 0 0 26.733 112.162 Q 26.441 112.097 26.216 112.097 A 1.654 1.654 0 0 0 25.545 112.223 Q 24.841 112.534 24.735 113.607 A 4.12 4.12 0 0 0 24.716 114.011 A 3.611 3.611 0 0 0 24.752 114.537 Q 24.83 115.07 25.082 115.403 A 1.184 1.184 0 0 0 25.849 115.862 A 1.804 1.804 0 0 0 26.167 115.888 A 3.122 3.122 0 0 0 27.028 115.763 A 3.854 3.854 0 0 0 27.429 115.623 L 27.429 116.284 Q 26.935 116.54 26.185 116.54 A 2.787 2.787 0 0 1 25.507 116.462 A 1.89 1.89 0 0 1 24.53 115.882 A 2.157 2.157 0 0 1 24.081 115.058 Q 23.982 114.731 23.954 114.338 A 4.509 4.509 0 0 1 23.943 114.02 A 4.114 4.114 0 0 1 24.007 113.271 Q 24.084 112.854 24.255 112.525 A 2.056 2.056 0 0 1 24.539 112.11 A 1.931 1.931 0 0 1 25.596 111.502 A 2.927 2.927 0 0 1 26.234 111.437 A 3.365 3.365 0 0 1 26.944 111.513 Q 27.299 111.589 27.501 111.693 Z M 15.646 112.07 Q 14.883 112.07 14.546 112.508 A 1.277 1.277 0 0 0 14.361 112.86 Q 14.236 113.209 14.214 113.741 A 5.745 5.745 0 0 0 14.209 113.984 Q 14.209 114.865 14.458 115.32 A 1.125 1.125 0 0 0 14.555 115.468 A 1.082 1.082 0 0 0 15.103 115.839 Q 15.287 115.896 15.511 115.911 A 2.398 2.398 0 0 0 15.664 115.915 A 1.487 1.487 0 0 0 16.086 115.859 A 1.072 1.072 0 0 0 16.688 115.415 A 1.712 1.712 0 0 0 16.9 114.956 Q 16.967 114.739 16.998 114.475 A 4.273 4.273 0 0 0 17.025 113.975 Q 17.025 113.013 16.688 112.542 A 1.087 1.087 0 0 0 15.996 112.104 A 1.725 1.725 0 0 0 15.646 112.07 Z M 21.935 114.473 L 21.935 114.029 L 21.19 114.06 Q 20.447 114.086 20.05 114.261 A 1.145 1.145 0 0 0 19.907 114.336 A 0.796 0.796 0 0 0 19.528 114.914 A 1.178 1.178 0 0 0 19.514 115.098 Q 19.514 115.453 19.703 115.659 A 0.664 0.664 0 0 0 19.759 115.713 A 0.812 0.812 0 0 0 20.063 115.875 Q 20.183 115.91 20.328 115.92 A 1.677 1.677 0 0 0 20.444 115.924 A 2.053 2.053 0 0 0 20.887 115.879 Q 21.277 115.793 21.538 115.543 A 1.249 1.249 0 0 0 21.886 114.919 Q 21.935 114.718 21.935 114.481 A 2.367 2.367 0 0 0 21.935 114.473 Z"
       id="back_labelLayer"
       stroke="#777777"
       fill="#777777"
       style="stroke:#777777;fill:#777777"
       vector-effect="non-scaling-stroke" />
    <path
       d="M 52 80 L 52 86.75 L 49 86.75 L 49 97.25 L 52 97.25 L 52 107.75 L 49 107.75 L 49 118.25 L 52 118.25 L 52 128.75 L 49 128.75 L 49 139.25 L 52 139.25 L 52 146 L 65.25 146 L 65.25 143 L 75.75 143 L 75.75 146 L 86.25 146 L 86.25 143 L 96.75 143 L 96.75 146 L 107.25 146 L 107.25 143 L 117.75 143 L 117.75 146 L 128.25 146 L 128.25 143 L 138.75 143 L 138.75 146 L 149.25 146 L 152 146 L 152 139.25 L 155 139.25 L 155 128.75 L 152 128.75 L 152 118.25 L 155 118.25 L 155 107.75 L 152 107.75 L 152 97.25 L 155 97.25 L 155 86.75 L 152 86.75 L 152 80 L 138.75 80 L 138.75 83 L 128.25 83 L 128.25 80 L 117.75 80 L 117.75 83 L 107.25 83 L 107.25 80 L 96.75 80 L 96.75 83 L 86.25 83 L 86.25 80 L 75.75 80 L 75.75 83 L 65.25 83 L 65.25 80 L 54.75 80 L 52 80 Z"
       id="right_outsideCutPath"
       stroke="#FF0000"
       stroke-width="0.1"
       style="stroke:#FF0000;stroke-width:0.1"
       vector-effect="non-scaling-stroke" />
    <path
       d="M 110.208 116.429 L 109.138 116.429 L 109.138 111.859 Q 109.138 110.995 108.745 110.57 Q 108.427 110.226 107.817 110.16 A 2.836 2.836 0 0 0 107.514 110.145 A 3.238 3.238 0 0 0 106.909 110.197 Q 106.573 110.261 106.315 110.403 A 1.498 1.498 0 0 0 105.887 110.751 A 1.78 1.78 0 0 0 105.584 111.286 Q 105.402 111.776 105.378 112.505 A 6.905 6.905 0 0 0 105.374 112.736 L 105.374 116.429 L 104.304 116.429 L 104.304 106.4 L 105.374 106.4 L 105.374 109.436 A 9.625 9.625 0 0 1 105.367 109.805 Q 105.356 110.113 105.323 110.344 L 105.387 110.344 A 2.138 2.138 0 0 1 106.136 109.624 A 2.611 2.611 0 0 1 106.286 109.542 A 2.747 2.747 0 0 1 107.188 109.275 A 3.472 3.472 0 0 1 107.617 109.249 A 4.341 4.341 0 0 1 108.346 109.306 Q 108.734 109.372 109.041 109.515 A 1.928 1.928 0 0 1 109.56 109.864 A 1.863 1.863 0 0 1 110.02 110.586 Q 110.13 110.886 110.176 111.258 A 4.627 4.627 0 0 1 110.208 111.82 L 110.208 116.429 Z M 100.411 109.365 L 102.854 109.365 L 102.854 110.042 L 101.546 110.196 A 1.739 1.739 0 0 1 101.696 110.42 Q 101.762 110.536 101.822 110.674 A 3.298 3.298 0 0 1 101.868 110.786 A 2.058 2.058 0 0 1 101.99 111.278 A 2.643 2.643 0 0 1 102.01 111.608 A 2.453 2.453 0 0 1 101.897 112.368 A 1.984 1.984 0 0 1 101.301 113.264 A 2.373 2.373 0 0 1 100.367 113.756 Q 99.915 113.883 99.354 113.883 A 3.439 3.439 0 0 1 98.956 113.861 A 2.904 2.904 0 0 1 98.761 113.831 A 1.904 1.904 0 0 0 98.454 114.03 Q 98.296 114.158 98.204 114.304 A 0.805 0.805 0 0 0 98.078 114.74 A 0.555 0.555 0 0 0 98.106 114.922 Q 98.157 115.071 98.302 115.16 A 0.594 0.594 0 0 0 98.317 115.169 A 0.751 0.751 0 0 0 98.483 115.237 Q 98.657 115.288 98.922 115.302 A 4.07 4.07 0 0 0 99.135 115.307 L 100.385 115.307 A 4.38 4.38 0 0 1 101.051 115.355 Q 101.725 115.458 102.148 115.791 A 1.565 1.565 0 0 1 102.73 116.788 A 2.351 2.351 0 0 1 102.764 117.196 A 2.317 2.317 0 0 1 102.631 117.997 Q 102.418 118.581 101.859 118.96 A 2.544 2.544 0 0 1 101.823 118.984 Q 101.167 119.414 100.091 119.544 A 8.48 8.48 0 0 1 99.077 119.6 A 5.994 5.994 0 0 1 98.273 119.55 Q 97.865 119.494 97.532 119.378 A 2.486 2.486 0 0 1 96.94 119.084 A 1.705 1.705 0 0 1 96.391 118.488 Q 96.19 118.115 96.19 117.628 Q 96.19 116.983 96.602 116.513 A 1.868 1.868 0 0 1 97.244 116.045 A 2.648 2.648 0 0 1 97.762 115.875 A 1.11 1.11 0 0 1 97.331 115.526 A 1.318 1.318 0 0 1 97.308 115.494 A 0.992 0.992 0 0 1 97.126 114.958 A 1.229 1.229 0 0 1 97.124 114.895 A 1.224 1.224 0 0 1 97.186 114.501 A 1.084 1.084 0 0 1 97.33 114.218 Q 97.486 113.999 97.778 113.791 A 3.361 3.361 0 0 1 97.981 113.657 A 1.876 1.876 0 0 1 97.167 113.005 A 2.325 2.325 0 0 1 97.089 112.89 A 2.212 2.212 0 0 1 96.749 111.824 A 2.699 2.699 0 0 1 96.744 111.653 A 3.091 3.091 0 0 1 96.825 110.922 A 2.034 2.034 0 0 1 97.44 109.864 Q 98.041 109.322 99.075 109.248 A 4.725 4.725 0 0 1 99.412 109.236 A 4.101 4.101 0 0 1 99.955 109.27 A 3.123 3.123 0 0 1 100.411 109.365 Z M 115.654 115.546 L 115.654 116.364 A 1.052 1.052 0 0 1 115.53 116.414 Q 115.396 116.458 115.206 116.492 A 4 4 0 0 1 115.142 116.503 A 4.637 4.637 0 0 1 114.84 116.542 Q 114.677 116.558 114.533 116.558 A 2.794 2.794 0 0 1 113.709 116.447 Q 112.483 116.069 112.483 114.399 L 112.483 110.196 L 111.471 110.196 L 111.471 109.681 L 112.483 109.236 L 112.934 107.728 L 113.553 107.728 L 113.553 109.365 L 115.603 109.365 L 115.603 110.196 L 113.553 110.196 L 113.553 114.353 Q 113.553 114.802 113.703 115.104 A 1.038 1.038 0 0 0 113.856 115.333 A 0.994 0.994 0 0 0 114.467 115.658 A 1.43 1.43 0 0 0 114.688 115.675 A 3.514 3.514 0 0 0 115.202 115.638 A 3.239 3.239 0 0 0 115.235 115.633 Q 115.488 115.593 115.64 115.55 A 1.605 1.605 0 0 0 115.654 115.546 Z M 92.413 109.313 L 92.264 110.306 A 4.715 4.715 0 0 0 91.925 110.243 Q 91.756 110.219 91.606 110.212 A 2.51 2.51 0 0 0 91.491 110.209 Q 90.634 110.209 90.025 110.905 A 2.443 2.443 0 0 0 89.435 112.277 A 3.248 3.248 0 0 0 89.416 112.639 L 89.416 116.429 L 88.346 116.429 L 88.346 109.365 L 89.229 109.365 L 89.351 110.673 L 89.403 110.673 A 3.613 3.613 0 0 1 89.807 110.096 A 2.76 2.76 0 0 1 90.35 109.61 A 2.133 2.133 0 0 1 91.568 109.236 A 4.912 4.912 0 0 1 92.008 109.255 A 3.585 3.585 0 0 1 92.413 109.313 Z M 94.804 109.365 L 94.804 116.429 L 93.734 116.429 L 93.734 109.365 L 94.804 109.365 Z M 100.044 116.268 L 98.761 116.268 A 2.459 2.459 0 0 0 98.318 116.305 Q 98.066 116.351 97.867 116.454 A 1.253 1.253 0 0 0 97.627 116.616 A 1.127 1.127 0 0 0 97.257 117.255 A 1.712 1.712 0 0 0 97.221 117.615 Q 97.221 118.188 97.704 118.485 Q 98.185 118.78 99.081 118.781 A 5.374 5.374 0 0 0 99.09 118.781 Q 100.293 118.781 100.939 118.46 A 1.777 1.777 0 0 0 101.085 118.379 Q 101.733 117.976 101.733 117.286 A 1.448 1.448 0 0 0 101.706 116.999 Q 101.672 116.833 101.596 116.71 A 0.674 0.674 0 0 0 101.378 116.49 A 1.015 1.015 0 0 0 101.137 116.385 Q 100.881 116.306 100.475 116.28 A 6.808 6.808 0 0 0 100.044 116.268 Z M 97.801 111.627 A 2.088 2.088 0 0 0 97.844 112.065 Q 97.935 112.49 98.22 112.749 A 1.383 1.383 0 0 0 98.776 113.051 Q 99.048 113.129 99.386 113.129 A 2.331 2.331 0 0 0 99.997 113.056 Q 100.953 112.796 100.953 111.608 Q 100.953 110.016 99.367 110.016 A 2.245 2.245 0 0 0 98.91 110.059 Q 98.48 110.149 98.207 110.422 A 1.284 1.284 0 0 0 97.896 110.945 Q 97.831 111.148 97.81 111.394 A 2.815 2.815 0 0 0 97.801 111.627 Z M 93.644 107.451 Q 93.644 107.083 93.824 106.912 Q 94.005 106.742 94.275 106.742 Q 94.533 106.742 94.72 106.916 Q 94.907 107.09 94.907 107.451 Q 94.907 107.694 94.822 107.854 A 0.522 0.522 0 0 1 94.72 107.989 A 0.624 0.624 0 0 1 94.275 108.166 A 0.68 0.68 0 0 1 94.041 108.127 A 0.6 0.6 0 0 1 93.824 107.989 A 0.552 0.552 0 0 1 93.689 107.768 Q 93.644 107.632 93.644 107.451 Z"
       id="right_labelLayer"
       stroke="#777777"
       fill="#777777"
       style="stroke:#777777;fill:#777777"
       vector-effect="non-scaling-stroke" />
    <path
       d="M 161 3 L 161 16.25 L 158 16.25 L 158 26.75 L 161 26.75 L 161 37.25 L 158 37.25 L 158 47.75 L 161 47.75 L 161 58.25 L 158 58.25 L 158 68.75 L 161 68.75 L 161 79.25 L 158 79.25 L 158 89.75 L 161 89.75 L 161 100.25 L 161 103 L 165.25 103 L 165.25 106 L 175.75 106 L 175.75 103 L 186.25 103 L 186.25 106 L 196.75 106 L 196.75 103 L 201 103 L 201 89.75 L 204 89.75 L 204 79.25 L 201 79.25 L 201 68.75 L 204 68.75 L 204 58.25 L 201 58.25 L 201 47.75 L 204 47.75 L 204 37.25 L 201 37.25 L 201 26.75 L 204 26.75 L 204 16.25 L 201 16.25 L 201 5.75 L 201 3 L 196.75 3 L 196.75 0 L 186.25 0 L 186.25 3 L 175.75 3 L 175.75 0 L 165.25 0 L 165.25 3 L 161 3 Z"
       id="bottom_outsideCutPath"
       stroke="#FF0000"
       stroke-width="0.1"
       style="stroke:#FF0000;stroke-width:0.1"
       vector-effect="non-scaling-stroke" />
    <path
       d="M 196.134 56.45 L 195.388 56.45 L 195.388 53.247 Q 195.388 52.658 195.137 52.364 Q 194.917 52.107 194.484 52.075 A 1.731 1.731 0 0 0 194.355 52.07 A 1.919 1.919 0 0 0 193.965 52.107 Q 193.733 52.155 193.558 52.267 A 0.988 0.988 0 0 0 193.327 52.47 Q 192.996 52.868 192.994 53.693 A 4.066 4.066 0 0 0 192.994 53.701 L 192.994 56.45 L 192.248 56.45 L 192.248 53.247 Q 192.248 52.658 191.997 52.364 Q 191.779 52.11 191.349 52.075 A 1.746 1.746 0 0 0 191.211 52.07 A 1.852 1.852 0 0 0 190.828 52.107 Q 190.413 52.195 190.184 52.49 A 1.251 1.251 0 0 0 189.999 52.842 Q 189.879 53.182 189.861 53.692 A 5.192 5.192 0 0 0 189.859 53.867 L 189.859 56.45 L 189.113 56.45 L 189.113 51.526 L 189.719 51.526 L 189.841 52.2 L 189.877 52.2 A 1.466 1.466 0 0 1 190.472 51.639 A 1.77 1.77 0 0 1 191.171 51.443 A 2.138 2.138 0 0 1 191.332 51.437 Q 192.047 51.437 192.455 51.757 A 1.273 1.273 0 0 1 192.841 52.272 L 192.877 52.272 A 1.557 1.557 0 0 1 193.464 51.69 A 1.871 1.871 0 0 1 193.515 51.661 A 1.887 1.887 0 0 1 194.208 51.451 A 2.353 2.353 0 0 1 194.468 51.437 Q 195.031 51.437 195.403 51.632 A 1.229 1.229 0 0 1 195.719 51.866 A 1.284 1.284 0 0 1 195.994 52.317 Q 196.134 52.691 196.134 53.238 L 196.134 56.45 Z M 166.612 55.816 L 166.558 55.816 L 166.4 56.45 L 165.866 56.45 L 165.866 49.46 L 166.612 49.46 L 166.612 51.158 A 15.547 15.547 0 0 1 166.603 51.683 Q 166.595 51.932 166.578 52.153 A 9.328 9.328 0 0 1 166.576 52.182 L 166.612 52.182 A 1.695 1.695 0 0 1 167.849 51.464 A 2.547 2.547 0 0 1 168.157 51.446 A 2.279 2.279 0 0 1 168.798 51.531 A 1.706 1.706 0 0 1 169.664 52.108 A 2.197 2.197 0 0 1 170.049 52.85 Q 170.144 53.156 170.179 53.522 A 4.786 4.786 0 0 1 170.201 53.984 Q 170.201 55.197 169.659 55.868 A 1.765 1.765 0 0 1 168.405 56.528 A 2.529 2.529 0 0 1 168.157 56.54 A 2.262 2.262 0 0 1 167.588 56.47 A 1.968 1.968 0 0 1 167.279 56.362 A 1.652 1.652 0 0 1 166.612 55.816 Z M 179.324 55.834 L 179.324 56.405 A 0.733 0.733 0 0 1 179.237 56.439 Q 179.145 56.47 179.012 56.494 A 2.79 2.79 0 0 1 178.967 56.502 A 3.232 3.232 0 0 1 178.757 56.529 Q 178.657 56.538 178.568 56.54 A 1.911 1.911 0 0 1 178.543 56.54 A 1.948 1.948 0 0 1 177.969 56.462 Q 177.114 56.199 177.114 55.035 L 177.114 52.106 L 176.409 52.106 L 176.409 51.747 L 177.114 51.437 L 177.429 50.385 L 177.86 50.385 L 177.86 51.526 L 179.288 51.526 L 179.288 52.106 L 177.86 52.106 L 177.86 55.003 Q 177.86 55.316 177.964 55.526 A 0.723 0.723 0 0 0 178.071 55.686 Q 178.282 55.924 178.651 55.924 A 2.449 2.449 0 0 0 179.009 55.899 A 2.258 2.258 0 0 0 179.032 55.895 A 4.034 4.034 0 0 0 179.14 55.877 Q 179.243 55.857 179.314 55.837 A 1.126 1.126 0 0 0 179.324 55.834 Z M 182.572 55.834 L 182.572 56.405 A 0.733 0.733 0 0 1 182.485 56.439 Q 182.392 56.47 182.26 56.494 A 2.79 2.79 0 0 1 182.215 56.502 A 3.232 3.232 0 0 1 182.004 56.529 Q 181.905 56.538 181.816 56.54 A 1.911 1.911 0 0 1 181.791 56.54 A 1.948 1.948 0 0 1 181.217 56.462 Q 180.362 56.199 180.362 55.035 L 180.362 52.106 L 179.657 52.106 L 179.657 51.747 L 180.362 51.437 L 180.677 50.385 L 181.108 50.385 L 181.108 51.526 L 182.536 51.526 L 182.536 52.106 L 181.108 52.106 L 181.108 55.003 Q 181.108 55.316 181.212 55.526 A 0.723 0.723 0 0 0 181.319 55.686 Q 181.53 55.924 181.898 55.924 A 2.449 2.449 0 0 0 182.257 55.899 A 2.258 2.258 0 0 0 182.28 55.895 A 4.034 4.034 0 0 0 182.388 55.877 Q 182.491 55.857 182.562 55.837 A 1.126 1.126 0 0 0 182.572 55.834 Z M 175.753 53.984 Q 175.753 55.188 175.147 55.864 Q 174.54 56.54 173.471 56.54 A 2.395 2.395 0 0 1 172.775 56.442 A 2.076 2.076 0 0 1 172.299 56.23 A 2.019 2.019 0 0 1 171.562 55.447 A 2.451 2.451 0 0 1 171.508 55.34 A 2.759 2.759 0 0 1 171.276 54.588 A 3.73 3.73 0 0 1 171.229 53.984 A 3.872 3.872 0 0 1 171.297 53.235 Q 171.432 52.554 171.831 52.108 Q 172.433 51.437 173.503 51.437 A 2.506 2.506 0 0 1 174.238 51.539 A 1.952 1.952 0 0 1 175.144 52.124 A 2.322 2.322 0 0 1 175.652 53.107 Q 175.753 53.505 175.753 53.984 Z M 187.806 53.984 Q 187.806 55.188 187.199 55.864 Q 186.593 56.54 185.524 56.54 A 2.395 2.395 0 0 1 184.828 56.442 A 2.076 2.076 0 0 1 184.351 56.23 A 2.019 2.019 0 0 1 183.615 55.447 A 2.451 2.451 0 0 1 183.561 55.34 A 2.759 2.759 0 0 1 183.329 54.588 A 3.73 3.73 0 0 1 183.282 53.984 A 3.872 3.872 0 0 1 183.35 53.235 Q 183.484 52.554 183.884 52.108 Q 184.486 51.437 185.555 51.437 A 2.506 2.506 0 0 1 186.291 51.539 A 1.952 1.952 0 0 1 187.197 52.124 A 2.322 2.322 0 0 1 187.704 53.107 Q 187.806 53.505 187.806 53.984 Z M 172.002 53.984 A 3.776 3.776 0 0 0 172.038 54.523 Q 172.078 54.797 172.161 55.019 A 1.564 1.564 0 0 0 172.379 55.421 A 1.222 1.222 0 0 0 173.175 55.89 A 1.852 1.852 0 0 0 173.489 55.915 A 1.732 1.732 0 0 0 173.946 55.859 A 1.205 1.205 0 0 0 174.601 55.423 A 1.601 1.601 0 0 0 174.85 54.938 Q 174.923 54.714 174.956 54.44 A 3.928 3.928 0 0 0 174.98 53.984 Q 174.98 53.045 174.601 52.557 A 1.227 1.227 0 0 0 173.838 52.102 A 1.881 1.881 0 0 0 173.48 52.07 A 1.775 1.775 0 0 0 173.038 52.122 A 1.188 1.188 0 0 0 172.375 52.551 Q 172.002 53.031 172.002 53.984 Z M 184.055 53.984 A 3.776 3.776 0 0 0 184.091 54.523 Q 184.13 54.797 184.214 55.019 A 1.564 1.564 0 0 0 184.432 55.421 A 1.222 1.222 0 0 0 185.228 55.89 A 1.852 1.852 0 0 0 185.542 55.915 A 1.732 1.732 0 0 0 185.999 55.859 A 1.205 1.205 0 0 0 186.653 55.423 A 1.601 1.601 0 0 0 186.903 54.938 Q 186.976 54.714 187.008 54.44 A 3.928 3.928 0 0 0 187.033 53.984 Q 187.033 53.045 186.653 52.557 A 1.227 1.227 0 0 0 185.891 52.102 A 1.881 1.881 0 0 0 185.533 52.07 A 1.775 1.775 0 0 0 185.091 52.122 A 1.188 1.188 0 0 0 184.428 52.551 Q 184.055 53.031 184.055 53.984 Z M 168.049 52.07 Q 167.285 52.07 166.948 52.508 A 1.277 1.277 0 0 0 166.764 52.86 Q 166.639 53.209 166.616 53.741 A 5.745 5.745 0 0 0 166.612 53.984 Q 166.612 54.865 166.861 55.32 A 1.125 1.125 0 0 0 166.957 55.468 A 1.082 1.082 0 0 0 167.506 55.839 Q 167.69 55.896 167.913 55.911 A 2.398 2.398 0 0 0 168.067 55.915 A 1.487 1.487 0 0 0 168.489 55.859 A 1.072 1.072 0 0 0 169.091 55.414 A 1.712 1.712 0 0 0 169.303 54.956 Q 169.369 54.739 169.401 54.475 A 4.273 4.273 0 0 0 169.428 53.975 Q 169.428 53.013 169.091 52.542 A 1.087 1.087 0 0 0 168.399 52.104 A 1.725 1.725 0 0 0 168.049 52.07 Z"
       id="bottom_labelLayer"
       stroke="#777777"
       fill="#777777"
       style="stroke:#777777;fill:#777777"
       vector-effect="non-scaling-stroke" />
  </g>
  <rect
     style="fill:none;stroke:#ff0000;stroke-width:0.871759"
     id="rect1223"
     width="30.128239"
     height="14.128241"
     x="85.474762"
     y="96.067757" />
</svg>
