<?xml version="1.0" encoding="UTF-8" standalone="no"?>
<svg
   xmlns:dc="http://purl.org/dc/elements/1.1/"
   xmlns:cc="http://creativecommons.org/ns#"
   xmlns:rdf="http://www.w3.org/1999/02/22-rdf-syntax-ns#"
   xmlns:svg="http://www.w3.org/2000/svg"
   xmlns="http://www.w3.org/2000/svg"
   xmlns:sodipodi="http://sodipodi.sourceforge.net/DTD/sodipodi-0.dtd"
   xmlns:inkscape="http://www.inkscape.org/namespaces/inkscape"
   width="792mm"
   height="427mm"
   viewBox="0 0 792 427"
   version="1.1"
   preserveAspectRatio="xMidYMid meet"
   id="svg942"
   sodipodi:docname="kast.svg"
   inkscape:version="1.0.2-2 (e86c870879, 2021-01-15)">
  <metadata
     id="metadata948">
    <rdf:RDF>
      <cc:Work
         rdf:about="">
        <dc:format>image/svg+xml</dc:format>
        <dc:type
           rdf:resource="http://purl.org/dc/dcmitype/StillImage" />
        <dc:title></dc:title>
      </cc:Work>
    </rdf:RDF>
  </metadata>
  <defs
     id="defs946" />
  <sodipodi:namedview
     pagecolor="#ffffff"
     bordercolor="#666666"
     borderopacity="1"
     objecttolerance="10"
     gridtolerance="10"
     guidetolerance="10"
     inkscape:pageopacity="0"
     inkscape:pageshadow="2"
     inkscape:window-width="1920"
     inkscape:window-height="1001"
     id="namedview944"
     showgrid="false"
     inkscape:zoom="0.69307848"
     inkscape:cx="1079.5137"
     inkscape:cy="491.22268"
     inkscape:window-x="-9"
     inkscape:window-y="-9"
     inkscape:window-maximized="1"
     inkscape:current-layer="svg942" />
  <g
     id="svgGroup"
     stroke-linecap="round"
     fill-rule="evenodd"
     font-size="9pt"
     stroke="#000"
     stroke-width="0.25mm"
     fill="none"
     style="stroke:#000;stroke-width:0.25mm;fill:none">
    <path
       d="M 0 215 L 0 233.25 L 6 233.25 L 6 252.75 L 0 252.75 L 0 272.25 L 6 272.25 L 6 291.75 L 0 291.75 L 0 311.25 L 6 311.25 L 6 330.75 L 0 330.75 L 0 350.25 L 6 350.25 L 6 369.75 L 0 369.75 L 0 389.25 L 6 389.25 L 6 408.75 L 0 408.75 L 0 427 L 29.25 427 L 29.25 421 L 48.75 421 L 48.75 427 L 68.25 427 L 68.25 421 L 87.75 421 L 87.75 427 L 107.25 427 L 107.25 421 L 126.75 421 L 126.75 427 L 146.25 427 L 146.25 421 L 165.75 421 L 165.75 427 L 185.25 427 L 185.25 421 L 204.75 421 L 204.75 427 L 224.25 427 L 224.25 421 L 243.75 421 L 243.75 427 L 263.25 427 L 263.25 421 L 282.75 421 L 282.75 427 L 302.25 427 L 312 427 L 312 408.75 L 306 408.75 L 306 389.25 L 312 389.25 L 312 369.75 L 306 369.75 L 306 350.25 L 312 350.25 L 312 330.75 L 306 330.75 L 306 311.25 L 312 311.25 L 312 291.75 L 306 291.75 L 306 272.25 L 312 272.25 L 312 252.75 L 306 252.75 L 306 233.25 L 312 233.25 L 312 215 L 282.75 215 L 282.75 221 L 263.25 221 L 263.25 215 L 243.75 215 L 243.75 221 L 224.25 221 L 224.25 215 L 204.75 215 L 204.75 221 L 185.25 221 L 185.25 215 L 165.75 215 L 165.75 221 L 146.25 221 L 146.25 215 L 126.75 215 L 126.75 221 L 107.25 221 L 107.25 215 L 87.75 215 L 87.75 221 L 68.25 221 L 68.25 215 L 48.75 215 L 48.75 221 L 29.25 221 L 29.25 215 L 9.75 215 L 0 215 Z"
       id="front_outsideCutPath"
       stroke="#FF0000"
       stroke-width="0.1"
       style="stroke:#FF0000;stroke-width:0.1"
       vector-effect="non-scaling-stroke" />
    <path
       d="M 321 215 L 321 233.25 L 315 233.25 L 315 252.75 L 321 252.75 L 321 272.25 L 315 272.25 L 315 291.75 L 321 291.75 L 321 311.25 L 315 311.25 L 315 330.75 L 321 330.75 L 321 350.25 L 315 350.25 L 315 369.75 L 321 369.75 L 321 389.25 L 315 389.25 L 315 408.75 L 321 408.75 L 321 427 L 347.25 427 L 347.25 421 L 366.75 421 L 366.75 427 L 386.25 427 L 386.25 421 L 405.75 421 L 405.75 427 L 425.25 427 L 425.25 421 L 444.75 421 L 444.75 427 L 464.25 427 L 471 427 L 471 408.75 L 477 408.75 L 477 389.25 L 471 389.25 L 471 369.75 L 477 369.75 L 477 350.25 L 471 350.25 L 471 330.75 L 477 330.75 L 477 311.25 L 471 311.25 L 471 291.75 L 477 291.75 L 477 272.25 L 471 272.25 L 471 252.75 L 477 252.75 L 477 233.25 L 471 233.25 L 471 215 L 444.75 215 L 444.75 221 L 425.25 221 L 425.25 215 L 405.75 215 L 405.75 221 L 386.25 221 L 386.25 215 L 366.75 215 L 366.75 221 L 347.25 221 L 347.25 215 L 327.75 215 L 321 215 Z"
       id="left_outsideCutPath"
       stroke="#FF0000"
       stroke-width="0.1"
       style="stroke:#FF0000;stroke-width:0.1"
       vector-effect="non-scaling-stroke" />
    <path
       d="M 486 271 L 486 297.25 L 480 297.25 L 480 316.75 L 486 316.75 L 486 336.25 L 480 336.25 L 480 355.75 L 486 355.75 L 486 375.25 L 480 375.25 L 480 394.75 L 486 394.75 L 486 414.25 L 486 421 L 509.25 421 L 509.25 427 L 528.75 427 L 528.75 421 L 548.25 421 L 548.25 427 L 567.75 427 L 567.75 421 L 587.25 421 L 587.25 427 L 606.75 427 L 606.75 421 L 626.25 421 L 626.25 427 L 645.75 427 L 645.75 421 L 665.25 421 L 665.25 427 L 684.75 427 L 684.75 421 L 704.25 421 L 704.25 427 L 723.75 427 L 723.75 421 L 743.25 421 L 743.25 427 L 762.75 427 L 762.75 421 L 782.25 421 L 786 421 L 786 394.75 L 792 394.75 L 792 375.25 L 786 375.25 L 786 355.75 L 792 355.75 L 792 336.25 L 786 336.25 L 786 316.75 L 792 316.75 L 792 297.25 L 786 297.25 L 786 277.75 L 786 271 L 762.75 271 L 762.75 265 L 743.25 265 L 743.25 271 L 723.75 271 L 723.75 265 L 704.25 265 L 704.25 271 L 684.75 271 L 684.75 265 L 665.25 265 L 665.25 271 L 645.75 271 L 645.75 265 L 626.25 265 L 626.25 271 L 606.75 271 L 606.75 265 L 587.25 265 L 587.25 271 L 567.75 271 L 567.75 265 L 548.25 265 L 548.25 271 L 528.75 271 L 528.75 265 L 509.25 265 L 509.25 271 L 489.75 271 L 486 271 Z"
       id="top_outsideCutPath"
       stroke="#FF0000"
       stroke-width="0.1"
       style="stroke:#FF0000;stroke-width:0.1"
       vector-effect="non-scaling-stroke" />
    <path
       d="M 0 0 L 0 18.25 L 6 18.25 L 6 37.75 L 0 37.75 L 0 57.25 L 6 57.25 L 6 76.75 L 0 76.75 L 0 96.25 L 6 96.25 L 6 115.75 L 0 115.75 L 0 135.25 L 6 135.25 L 6 154.75 L 0 154.75 L 0 174.25 L 6 174.25 L 6 193.75 L 0 193.75 L 0 212 L 29.25 212 L 29.25 206 L 48.75 206 L 48.75 212 L 68.25 212 L 68.25 206 L 87.75 206 L 87.75 212 L 107.25 212 L 107.25 206 L 126.75 206 L 126.75 212 L 146.25 212 L 146.25 206 L 165.75 206 L 165.75 212 L 185.25 212 L 185.25 206 L 204.75 206 L 204.75 212 L 224.25 212 L 224.25 206 L 243.75 206 L 243.75 212 L 263.25 212 L 263.25 206 L 282.75 206 L 282.75 212 L 302.25 212 L 312 212 L 312 193.75 L 306 193.75 L 306 174.25 L 312 174.25 L 312 154.75 L 306 154.75 L 306 135.25 L 312 135.25 L 312 115.75 L 306 115.75 L 306 96.25 L 312 96.25 L 312 76.75 L 306 76.75 L 306 57.25 L 312 57.25 L 312 37.75 L 306 37.75 L 306 18.25 L 312 18.25 L 312 0 L 282.75 0 L 282.75 6 L 263.25 6 L 263.25 0 L 243.75 0 L 243.75 6 L 224.25 6 L 224.25 0 L 204.75 0 L 204.75 6 L 185.25 6 L 185.25 0 L 165.75 0 L 165.75 6 L 146.25 6 L 146.25 0 L 126.75 0 L 126.75 6 L 107.25 6 L 107.25 0 L 87.75 0 L 87.75 6 L 68.25 6 L 68.25 0 L 48.75 0 L 48.75 6 L 29.25 6 L 29.25 0 L 9.75 0 L 0 0 Z"
       id="back_outsideCutPath"
       stroke="#FF0000"
       stroke-width="0.1"
       style="stroke:#FF0000;stroke-width:0.1"
       vector-effect="non-scaling-stroke" />
    <path
       d="M 321 0 L 321 18.25 L 315 18.25 L 315 37.75 L 321 37.75 L 321 57.25 L 315 57.25 L 315 76.75 L 321 76.75 L 321 96.25 L 315 96.25 L 315 115.75 L 321 115.75 L 321 135.25 L 315 135.25 L 315 154.75 L 321 154.75 L 321 174.25 L 315 174.25 L 315 193.75 L 321 193.75 L 321 212 L 347.25 212 L 347.25 206 L 366.75 206 L 366.75 212 L 386.25 212 L 386.25 206 L 405.75 206 L 405.75 212 L 425.25 212 L 425.25 206 L 444.75 206 L 444.75 212 L 464.25 212 L 471 212 L 471 193.75 L 477 193.75 L 477 174.25 L 471 174.25 L 471 154.75 L 477 154.75 L 477 135.25 L 471 135.25 L 471 115.75 L 477 115.75 L 477 96.25 L 471 96.25 L 471 76.75 L 477 76.75 L 477 57.25 L 471 57.25 L 471 37.75 L 477 37.75 L 477 18.25 L 471 18.25 L 471 0 L 444.75 0 L 444.75 6 L 425.25 6 L 425.25 0 L 405.75 0 L 405.75 6 L 386.25 6 L 386.25 0 L 366.75 0 L 366.75 6 L 347.25 6 L 347.25 0 L 327.75 0 L 321 0 Z"
       id="right_outsideCutPath"
       stroke="#FF0000"
       stroke-width="0.1"
       style="stroke:#FF0000;stroke-width:0.1"
       vector-effect="non-scaling-stroke" />
    <path
       d="M 486 106 L 486 132.25 L 480 132.25 L 480 151.75 L 486 151.75 L 486 171.25 L 480 171.25 L 480 190.75 L 486 190.75 L 486 210.25 L 480 210.25 L 480 229.75 L 486 229.75 L 486 249.25 L 486 256 L 509.25 256 L 509.25 262 L 528.75 262 L 528.75 256 L 548.25 256 L 548.25 262 L 567.75 262 L 567.75 256 L 587.25 256 L 587.25 262 L 606.75 262 L 606.75 256 L 626.25 256 L 626.25 262 L 645.75 262 L 645.75 256 L 665.25 256 L 665.25 262 L 684.75 262 L 684.75 256 L 704.25 256 L 704.25 262 L 723.75 262 L 723.75 256 L 743.25 256 L 743.25 262 L 762.75 262 L 762.75 256 L 782.25 256 L 786 256 L 786 229.75 L 792 229.75 L 792 210.25 L 786 210.25 L 786 190.75 L 792 190.75 L 792 171.25 L 786 171.25 L 786 151.75 L 792 151.75 L 792 132.25 L 786 132.25 L 786 112.75 L 786 106 L 762.75 106 L 762.75 100 L 743.25 100 L 743.25 106 L 723.75 106 L 723.75 100 L 704.25 100 L 704.25 106 L 684.75 106 L 684.75 100 L 665.25 100 L 665.25 106 L 645.75 106 L 645.75 100 L 626.25 100 L 626.25 106 L 606.75 106 L 606.75 100 L 587.25 100 L 587.25 106 L 567.75 106 L 567.75 100 L 548.25 100 L 548.25 106 L 528.75 106 L 528.75 100 L 509.25 100 L 509.25 106 L 489.75 106 L 486 106 Z"
       id="bottom_outsideCutPath"
       stroke="#FF0000"
       stroke-width="0.1"
       style="stroke:#FF0000;stroke-width:0.1"
       vector-effect="non-scaling-stroke" />
  </g>
  <rect
     style="fill:none;stroke:#ff0000;stroke-width:0.264136"
     id="rect950"
     width="237.10704"
     height="29.735865"
     x="37.768265"
     y="73.107071" />
  <ellipse
     style="fill:none;stroke:#ff0000;stroke-width:0.3"
     id="path954"
     cx="38.244041"
     cy="87.986908"
     rx="17.141106"
     ry="14.85" />
  <ellipse
     style="fill:none;stroke:#ff0000;stroke-width:0.3"
     id="path954-8"
     cx="273.6438"
     cy="87.927002"
     rx="17.141106"
     ry="14.85" />
</svg>
