<?xml version="1.0" encoding="UTF-8" standalone="no"?>
<svg
   xmlns:dc="http://purl.org/dc/elements/1.1/"
   xmlns:cc="http://creativecommons.org/ns#"
   xmlns:rdf="http://www.w3.org/1999/02/22-rdf-syntax-ns#"
   xmlns:svg="http://www.w3.org/2000/svg"
   xmlns="http://www.w3.org/2000/svg"
   xmlns:sodipodi="http://sodipodi.sourceforge.net/DTD/sodipodi-0.dtd"
   xmlns:inkscape="http://www.inkscape.org/namespaces/inkscape"
   width="458mm"
   height="908mm"
   viewBox="0 0 458 908"
   version="1.1"
   preserveAspectRatio="xMidYMid meet"
   id="svg4771"
   sodipodi:docname="spuit3.svg"
   inkscape:version="1.0.2-2 (e86c870879, 2021-01-15)">
  <metadata
     id="metadata4777">
    <rdf:RDF>
      <cc:Work
         rdf:about="">
        <dc:format>image/svg+xml</dc:format>
        <dc:type
           rdf:resource="http://purl.org/dc/dcmitype/StillImage" />
        <dc:title></dc:title>
      </cc:Work>
    </rdf:RDF>
  </metadata>
  <defs
     id="defs4775" />
  <sodipodi:namedview
     pagecolor="#ffffff"
     bordercolor="#666666"
     borderopacity="1"
     objecttolerance="10"
     gridtolerance="10"
     guidetolerance="10"
     inkscape:pageopacity="0"
     inkscape:pageshadow="2"
     inkscape:window-width="1920"
     inkscape:window-height="1001"
     id="namedview4773"
     showgrid="false"
     inkscape:snap-bbox="true"
     inkscape:bbox-nodes="true"
     inkscape:zoom="1"
     inkscape:cx="1072.0823"
     inkscape:cy="366.12417"
     inkscape:window-x="-9"
     inkscape:window-y="-9"
     inkscape:window-maximized="1"
     inkscape:current-layer="svgGroup"
     inkscape:document-rotation="0" />
  <g
     id="svgGroup"
     stroke-linecap="round"
     fill-rule="evenodd"
     font-size="12px"
     stroke="#000"
     stroke-width="0.25mm"
     fill="none"
     style="fill:none;stroke:#000000;stroke-width:0.25mm">
    <path
       style="stroke:#ff0000;stroke-width:0.1"
       d="m 180,803 v -34.25 h -6 v -19.5 h 6 v -19.5 h -6 v -19.5 h 6 v -19.5 h -6 v -19.5 h 6 v -19.5 h -6 v -19.5 h 6 v -19.5 h -6 v -19.5 h 6 v -19.5 h -6 v -19.5 h 6 v -19.5 h -6 v -19.5 h 6 v -19.5 h -6 v -19.5 h 6 v -19.5 h -6 v -19.5 h 6 V 417.75 403 h -21.75 v 6 h -19.5 v -6 h -19.5 v 6 h -19.5 v -6 h -19.5 v 6 h -19.5 v -6 h -19.5 v 6 h -19.5 v -6 H 0 v 34.25 h 6 v 19.5 H 0 v 19.5 h 6 v 19.5 H 0 v 19.5 h 6 v 19.5 H 0 v 19.5 h 6 v 19.5 H 0 v 19.5 h 6 v 19.5 H 0 v 19.5 h 6 v 19.5 H 0 v 19.5 h 6 v 19.5 H 0 v 19.5 h 6 v 19.5 H 0 v 19.5 h 6 v 19.5 H 0 v 19.5 14.75"
       id="path4785" />
    <path
       style="stroke:#ff0000;stroke-width:0.1000125;stroke-miterlimit:4;stroke-dasharray:none"
       d="m 0,803 h 21.75 v -6 h 19.5 v 6 h 19.5 v -6 h 19.5 v 6 h 19.5 v -6 h 19.5 v 6 h 19.5 v -6 h 19.5 v 6 H 180"
       id="front_outsideCutPath" />
    <path
       style="stroke:#ff0000;stroke-width:0.1"
       d="m 269,803 v -34.25 h 6 v -19.5 h -6 v -19.5 h 6 v -19.5 h -6 v -19.5 h 6 v -19.5 h -6 v -19.5 h 6 v -19.5 h -6 v -19.5 h 6 v -19.5 h -6 v -19.5 h 6 v -19.5 h -6 v -19.5 h 6 v -19.5 h -6 v -19.5 h 6 v -19.5 h -6 v -19.5 h 6 v -19.5 h -6 V 417.75 403 h -10.75 v 6 h -19.5 v -6 h -19.5 v 6 h -19.5 v -6 H 189 v 34.25 h -6 v 19.5 h 6 v 19.5 h -6 v 19.5 h 6 v 19.5 h -6 v 19.5 h 6 v 19.5 h -6 v 19.5 h 6 v 19.5 h -6 v 19.5 h 6 v 19.5 h -6 v 19.5 h 6 v 19.5 h -6 v 19.5 h 6 v 19.5 h -6 v 19.5 h 6 v 19.5 h -6 v 19.5 h 6 v 19.5 14.75"
       id="path5666" />
    <path
       style="stroke:#fe0000;stroke-width:0.100013;stroke-miterlimit:4;stroke-dasharray:none;stroke-opacity:1"
       d="m 328.33904,414.79875 h 10.75 v -6 h 19.5 v 6 h 19.5 v -6 h 19.5 v 6 h 10.75"
       id="left_outsideCutPath" />
    <path
       d="m 284,717 v 10.75 h -6 v 19.5 h 6 v 19.5 h -6 v 19.5 h 6 V 797 h 15.75 v 6 h 19.5 v -6 h 19.5 v 6 h 19.5 v -6 h 19.5 v 6 h 19.5 v -6 h 19.5 v 6 h 19.5 v -6 H 452 v -10.75 h 6 v -19.5 h -6 v -19.5 h 6 v -19.5 h -6 V 717 h -15.75 v -6 h -19.5 v 6 h -19.5 v -6 h -19.5 v 6 h -19.5 v -6 h -19.5 v 6 h -19.5 v -6 h -19.5 v 6 z"
       id="top_outsideCutPath"
       stroke="#FF0000"
       stroke-width="0.1"
       style="stroke:#ff0000;stroke-width:0.1"
       vector-effect="non-scaling-stroke"
       sodipodi:nodetypes="ccccccccccccccccccccccccccccccccccccccccccccccccccccc" />
    <path
       d="m 0,0 v 34.25 h 6 v 19.5 H 0 v 19.5 h 6 v 19.5 H 0 v 19.5 h 6 v 19.5 H 0 v 19.5 h 6 v 19.5 H 0 v 19.5 h 6 v 19.5 H 0 v 19.5 h 6 v 19.5 H 0 v 19.5 h 6 v 19.5 H 0 v 19.5 h 6 v 19.5 H 0 v 19.5 h 6 v 19.5 H 0 v 19.5 14.75 h 21.75 v -6 h 19.5 v 6 h 19.5 v -6 h 19.5 v 6 h 19.5 v -6 h 19.5 v 6 h 19.5 v -6 h 19.5 v 6 H 180 v -34.25 h -6 v -19.5 h 6 v -19.5 h -6 v -19.5 h 6 v -19.5 h -6 v -19.5 h 6 v -19.5 h -6 v -19.5 h 6 v -19.5 h -6 v -19.5 h 6 v -19.5 h -6 v -19.5 h 6 v -19.5 h -6 v -19.5 h 6 v -19.5 h -6 v -19.5 h 6 v -19.5 h -6 v -19.5 h 6 V 14.75 0 h -21.75 v 6 h -19.5 V 0 h -19.5 V 6 H 99.75 V 0 H 80.25 V 6 H 60.75 V 0 H 41.25 V 6 H 21.75 V 0 Z"
       id="back_outsideCutPath"
       stroke="#FF0000"
       stroke-width="0.1"
       style="stroke:#ff0000;stroke-width:0.1"
       vector-effect="non-scaling-stroke" />
    <path
       d="m 189,0 v 34.25 h -6 v 19.5 h 6 v 19.5 h -6 v 19.5 h 6 v 19.5 h -6 v 19.5 h 6 v 19.5 h -6 v 19.5 h 6 v 19.5 h -6 v 19.5 h 6 v 19.5 h -6 v 19.5 h 6 v 19.5 h -6 v 19.5 h 6 v 19.5 h -6 v 19.5 h 6 v 19.5 h -6 v 19.5 h 6 v 19.5 14.75 h 10.75 v -6 h 19.5 v 6 h 19.5 v -6 h 19.5 v 6 H 269 v -34.25 h 6 v -19.5 h -6 v -19.5 h 6 v -19.5 h -6 v -19.5 h 6 v -19.5 h -6 v -19.5 h 6 v -19.5 h -6 v -19.5 h 6 v -19.5 h -6 v -19.5 h 6 v -19.5 h -6 v -19.5 h 6 v -19.5 h -6 v -19.5 h 6 v -19.5 h -6 v -19.5 h 6 v -19.5 h -6 V 14.75 0 h -10.75 v 6 h -19.5 V 0 h -19.5 v 6 h -19.5 V 0 Z"
       id="right_outsideCutPath"
       stroke="#FF0000"
       stroke-width="0.1"
       style="stroke:#ff0000;stroke-width:0.1"
       vector-effect="non-scaling-stroke" />
    <path
       d="m 284,622 v 10.75 h -6 v 19.5 h 6 v 19.5 h -6 v 19.5 h 6 V 702 h 15.75 v 6 h 19.5 v -6 h 19.5 v 6 h 19.5 v -6 h 19.5 v 6 h 19.5 v -6 h 19.5 v 6 h 19.5 v -6 H 452 v -10.75 h 6 v -19.5 h -6 v -19.5 h 6 v -19.5 h -6 V 622 h -15.75 v -6 h -19.5 v 6 h -19.5 v -6 h -19.5 v 6 h -19.5 v -6 h -19.5 v 6 h -19.5 v -6 h -19.5 v 6 z"
       id="bottom_outsideCutPath"
       stroke="#FF0000"
       stroke-width="0.1"
       style="stroke:#ff0000;stroke-width:0.1"
       vector-effect="non-scaling-stroke" />
    <path
       style="fill:none;stroke:#fe0000;stroke-width:0.1;stroke-opacity:1"
       d="m 276.5875,287.15469 h 21.75 v -6 h 19.50001 v 6 h 19.5 v -6 h 19.5 v 6 h 19.49999 v -6 h 19.5 v 6 h 19.5 v -6 h 19.5 v 6 h 21.75"
       id="front_outsideCutPath-2" />
    <path
       style="fill:none;stroke:#fe0000;stroke-width:0.102394;stroke-linecap:butt;stroke-linejoin:miter;stroke-miterlimit:4;stroke-dasharray:none;stroke-opacity:1"
       d="m 276.5875,287.1547 11.28074,11.2917 4.24451,-4.24043 13.78163,13.79501 -4.24304,4.23891 13.78165,13.79503 4.24406,-4.23994 13.78103,13.79439 -4.24282,4.23871 13.78214,13.7955 4.2442,-4.24008 13.65012,13.66338 -4.24335,4.23923 9.90264,9.91225"
       id="path5053" />
    <path
       style="fill:none;stroke:#fe0000;stroke-width:0.102394;stroke-linecap:butt;stroke-linejoin:miter;stroke-miterlimit:4;stroke-dasharray:none;stroke-opacity:1"
       d="m 456.5875,287.15469 -11.28074,11.2917 -4.24451,-4.24043 -13.78162,13.79501 4.24303,4.23891 -13.78165,13.79503 -4.24405,-4.23994 -13.78103,13.79439 4.24281,4.23871 -13.78214,13.7955 -4.2442,-4.24008 -13.65012,13.66338 4.24335,4.23923 -9.90263,9.91225"
       id="path5053-1" />
    <path
       style="fill:none;stroke:#fe0000;stroke-width:0.1;stroke-opacity:1"
       d="m 277.06348,169.31749 h 21.75 v -6 h 19.50001 v 6 h 19.5 v -6 h 19.5 v 6 h 19.49999 v -6 h 19.5 v 6 h 19.5 v -6 h 19.5 v 6 h 21.75"
       id="front_outsideCutPath-2-5" />
    <path
       style="fill:none;stroke:#fe0000;stroke-width:0.102394;stroke-linecap:butt;stroke-linejoin:miter;stroke-miterlimit:4;stroke-dasharray:none;stroke-opacity:1"
       d="m 277.06348,169.3175 11.28074,11.2917 4.24451,-4.24043 13.78163,13.79501 -4.24304,4.23891 13.78165,13.79503 4.24406,-4.23994 13.78103,13.79439 -4.24282,4.23871 13.78214,13.7955 4.2442,-4.24008 13.65012,13.66338 -4.24335,4.23923 9.90264,9.91225"
       id="path5053-6" />
    <path
       style="fill:none;stroke:#fe0000;stroke-width:0.102394;stroke-linecap:butt;stroke-linejoin:miter;stroke-miterlimit:4;stroke-dasharray:none;stroke-opacity:1"
       d="m 457.06348,169.31749 -11.28074,11.2917 -4.24451,-4.24043 -13.78162,13.79501 4.24303,4.23891 -13.78165,13.79503 -4.24405,-4.23994 -13.78103,13.79439 4.24281,4.23871 -13.78214,13.7955 -4.2442,-4.24008 -13.65012,13.66338 4.24335,4.23923 -9.90263,9.91225"
       id="path5053-1-4" />
    <path
       style="fill:none;stroke:#ff0000;stroke-width:0.1"
       d="m 189,803 h 10.75 v -6 h 19.5 v 6 h 19.5 v -6 h 19.5 v 6 H 269"
       id="left_outsideCutPath-0" />
    <path
       style="fill:none;stroke:#fe0000;stroke-width:0.100013;stroke-linecap:butt;stroke-linejoin:miter;stroke-miterlimit:4;stroke-dasharray:none;stroke-opacity:1"
       d="m 328.40495,508.75937 h -5.9971 l 0.003,19.50021 h 5.99723"
       id="path147" />
    <path
       style="fill:none;stroke:#fe0000;stroke-width:0.100013;stroke-linecap:butt;stroke-linejoin:miter;stroke-miterlimit:4;stroke-dasharray:none;stroke-opacity:1"
       d="m 328.35807,489.21018 -0.003,19.49918"
       id="path145" />
    <path
       style="fill:none;stroke:#fe0000;stroke-width:0.100013;stroke-linecap:butt;stroke-linejoin:miter;stroke-miterlimit:4;stroke-dasharray:none;stroke-opacity:1"
       d="m 328.41108,469.75921 h -5.99797 l 0.003,19.50098 h 5.99925"
       id="path143" />
    <path
       style="fill:none;stroke:#fe0000;stroke-width:0.100013;stroke-linecap:butt;stroke-linejoin:miter;stroke-miterlimit:4;stroke-dasharray:none;stroke-opacity:1"
       d="m 328.36535,450.20811 -0.003,19.50108"
       id="path141" />
    <path
       style="fill:none;stroke:#fe0000;stroke-width:0.100013;stroke-linecap:butt;stroke-linejoin:miter;stroke-miterlimit:4;stroke-dasharray:none;stroke-opacity:1"
       d="m 328.36273,430.70792 h -5.99861 l 0.003,19.50019 h 5.99823"
       id="path139" />
    <path
       style="fill:none;stroke:#fe0000;stroke-width:0.100013;stroke-linecap:butt;stroke-linejoin:miter;stroke-miterlimit:4;stroke-dasharray:none;stroke-opacity:1"
       d="m 328.36797,414.74875 v 15.95917"
       id="path5688" />
    <path
       style="fill:none;stroke:#fe0000;stroke-width:0.100013;stroke-linecap:butt;stroke-linejoin:miter;stroke-miterlimit:4;stroke-dasharray:none;stroke-opacity:1"
       d="m 328.35506,528.25958 v 14.07809"
       id="path5690" />
    <path
       style="fill:none;stroke:#fe0000;stroke-width:0.100013;stroke-linecap:butt;stroke-linejoin:miter;stroke-miterlimit:4;stroke-dasharray:none;stroke-opacity:1"
       d="m 408.47144,508.94165 h 5.9971 l -0.003,19.50021 h -5.99723"
       id="path161" />
    <path
       style="fill:none;stroke:#fe0000;stroke-width:0.100013;stroke-linecap:butt;stroke-linejoin:miter;stroke-miterlimit:4;stroke-dasharray:none;stroke-opacity:1"
       d="m 408.51832,489.39246 0.003,19.49918"
       id="path159" />
    <path
       style="fill:none;stroke:#fe0000;stroke-width:0.100013;stroke-linecap:butt;stroke-linejoin:miter;stroke-miterlimit:4;stroke-dasharray:none;stroke-opacity:1"
       d="m 408.46831,469.89147 h 5.99797 l -0.003,19.50099 h -5.99925"
       id="path157" />
    <path
       style="fill:none;stroke:#fe0000;stroke-width:0.100013;stroke-linecap:butt;stroke-linejoin:miter;stroke-miterlimit:4;stroke-dasharray:none;stroke-opacity:1"
       d="m 408.51104,450.39039 0.003,19.50108"
       id="path155" />
    <path
       style="fill:none;stroke:#fe0000;stroke-width:0.100013;stroke-linecap:butt;stroke-linejoin:miter;stroke-miterlimit:4;stroke-dasharray:none;stroke-opacity:1"
       d="m 408.46103,430.94021 h 5.99861 l -0.003,19.50019 h -5.99823"
       id="path153" />
    <path
       style="fill:none;stroke:#fe0000;stroke-width:0.100013;stroke-linecap:butt;stroke-linejoin:miter;stroke-miterlimit:4;stroke-dasharray:none;stroke-opacity:1"
       d="M 408.50842,414.93103 V 430.8902"
       id="path5688-9" />
    <path
       style="fill:none;stroke:#fe0000;stroke-width:0.100013;stroke-linecap:butt;stroke-linejoin:miter;stroke-miterlimit:4;stroke-dasharray:none;stroke-opacity:1"
       d="m 408.52133,528.44186 v 14.07809"
       id="path5690-7" />
    <path
       style="fill:none;stroke:#fe0000;stroke-width:0.100013;stroke-miterlimit:4;stroke-dasharray:none;stroke-opacity:1"
       d="m 328.52133,542.51995 h 10.75 v -6 h 19.5 v 6 h 19.5 v -6 h 19.5 v 6 h 10.75"
       id="left_outsideCutPath-06" />
    <path
       style="fill:none;stroke:#fe0000;stroke-width:0.100013;stroke-miterlimit:4;stroke-dasharray:none;stroke-opacity:1"
       d="m 319.43818,26.194035 h 10.75 v -6 h 19.5 v 6 h 19.5 v -6 h 19.5 v 6 h 10.75"
       id="left_outsideCutPath-2" />
    <path
       style="fill:none;stroke:#fe0000;stroke-width:0.100013;stroke-linecap:butt;stroke-linejoin:miter;stroke-miterlimit:4;stroke-dasharray:none;stroke-opacity:1"
       d="m 319.66558,114.15465 h -5.9971 l 0.003,19.50021 h 5.99723"
       id="path179" />
    <path
       style="fill:none;stroke:#fe0000;stroke-width:0.100013;stroke-linecap:butt;stroke-linejoin:miter;stroke-miterlimit:4;stroke-dasharray:none;stroke-opacity:1"
       d="m 319.6187,94.605457 -0.003,19.499183"
       id="path177" />
    <path
       style="fill:none;stroke:#fe0000;stroke-width:0.100013;stroke-linecap:butt;stroke-linejoin:miter;stroke-miterlimit:4;stroke-dasharray:none;stroke-opacity:1"
       d="m 319.67171,75.154482 h -5.99797 l 0.003,19.500985 h 5.99925"
       id="path175" />
    <path
       style="fill:none;stroke:#fe0000;stroke-width:0.100013;stroke-linecap:butt;stroke-linejoin:miter;stroke-miterlimit:4;stroke-dasharray:none;stroke-opacity:1"
       d="m 319.62598,55.603388 -0.003,19.50108"
       id="path173" />
    <path
       style="fill:none;stroke:#fe0000;stroke-width:0.100013;stroke-linecap:butt;stroke-linejoin:miter;stroke-miterlimit:4;stroke-dasharray:none;stroke-opacity:1"
       d="m 319.67599,36.153205 h -5.99861 l 0.003,19.50019 h 5.99823"
       id="path171" />
    <path
       style="fill:none;stroke:#fe0000;stroke-width:0.100013;stroke-linecap:butt;stroke-linejoin:miter;stroke-miterlimit:4;stroke-dasharray:none;stroke-opacity:1"
       d="m 319.3511,133.73714 v 14.07809"
       id="path5690-0" />
    <path
       style="fill:none;stroke:#fe0000;stroke-width:0.100013;stroke-linecap:butt;stroke-linejoin:miter;stroke-miterlimit:4;stroke-dasharray:none;stroke-opacity:1"
       d="m 399.4012,114.15465 h 5.9971 l -0.003,19.50021 h -5.99723"
       id="path193" />
    <path
       style="fill:none;stroke:#fe0000;stroke-width:0.100013;stroke-linecap:butt;stroke-linejoin:miter;stroke-miterlimit:4;stroke-dasharray:none;stroke-opacity:1"
       d="m 399.44808,94.605457 0.003,19.499183"
       id="path191" />
    <path
       style="fill:none;stroke:#fe0000;stroke-width:0.100013;stroke-linecap:butt;stroke-linejoin:miter;stroke-miterlimit:4;stroke-dasharray:none;stroke-opacity:1"
       d="m 399.39507,75.154482 h 5.99797 l -0.003,19.500985 h -5.99925"
       id="path189" />
    <path
       style="fill:none;stroke:#fe0000;stroke-width:0.100013;stroke-linecap:butt;stroke-linejoin:miter;stroke-miterlimit:4;stroke-dasharray:none;stroke-opacity:1"
       d="m 399.4408,55.603388 0.003,19.50108"
       id="path187" />
    <path
       style="fill:none;stroke:#fe0000;stroke-width:0.100013;stroke-linecap:butt;stroke-linejoin:miter;stroke-miterlimit:4;stroke-dasharray:none;stroke-opacity:1"
       d="m 399.49643,36.053184 h 5.99861 l -0.003,19.50019 h -5.99823"
       id="path185" />
    <path
       style="fill:none;stroke:#fe0000;stroke-width:0.100013;stroke-linecap:butt;stroke-linejoin:miter;stroke-miterlimit:4;stroke-dasharray:none;stroke-opacity:1"
       d="m 399.71568,133.73714 v 14.07809"
       id="path5690-7-8" />
    <path
       style="fill:none;stroke:#fe0000;stroke-width:0.100013;stroke-miterlimit:4;stroke-dasharray:none;stroke-opacity:1"
       d="m 319.26881,147.86523 h 10.75 v 6 h 19.5 v -6 h 19.5 v 6 h 19.5 v -6 h 10.75"
       id="left_outsideCutPath-06-9" />
    <rect
       style="fill:none;fill-rule:evenodd;stroke:#ff0000;stroke-width:0.0888963;stroke-miterlimit:4;stroke-dasharray:none;stroke-opacity:1"
       id="rect5856"
       width="158.66805"
       height="301.89841"
       x="10.96753"
       y="11.373805" />
    <circle
       style="fill:none;stroke:#ff0000;stroke-width:0.0985168;stroke-miterlimit:4;stroke-dasharray:none;stroke-opacity:1"
       id="path5860"
       cx="91.928436"
       cy="368.68506"
       r="3.9507415" />
    <path
       style="fill:none;stroke:#000000;stroke-width:0.264583px;stroke-linecap:butt;stroke-linejoin:miter;stroke-opacity:1"
       d="m 319.43817,26.194035 v 0 c 0,0 0,0 0,0 z"
       id="path201" />
    <path
       style="fill:none;stroke:#ff0000;stroke-width:0.1000125;stroke-linecap:butt;stroke-linejoin:miter;stroke-opacity:1;stroke-miterlimit:4;stroke-dasharray:none"
       d="m 319.67598,36.153206 -0.23781,-9.959171"
       id="path203" />
    <path
       style="fill:none;stroke:#ff0000;stroke-width:0.1000125;stroke-linecap:butt;stroke-linejoin:miter;stroke-opacity:1;stroke-miterlimit:4;stroke-dasharray:none"
       d="m 399.43817,26.194035 0.0583,9.859151"
       id="path205" />
  </g>
</svg>
